<svg width="1280" height="720" viewBox="0 0 1280 720" fill="none" xmlns="http://www.w3.org/2000/svg">
<rect width="1280" height="720" fill="#101010"/>
<g opacity="0.2" filter="url(#filter0_d_211_530)">
<rect x="20" y="20" width="1240" height="680" fill="url(#paint0_linear_211_530)" shape-rendering="crispEdges"/>
<rect x="21.9811" y="21.9811" width="1236.04" height="676.038" stroke="url(#paint1_linear_211_530)" stroke-opacity="0.2" stroke-width="3.96225" shape-rendering="crispEdges"/>
</g>
<rect x="40.9974" y="398.997" width="1198.01" height="276.005" rx="29.0026" fill="url(#paint2_linear_211_530)" stroke="url(#paint3_linear_211_530)" stroke-width="1.99489"/>
<path d="M548.847 402.576C549.719 402.576 550.383 402.776 550.839 403.176C551.295 403.568 551.523 404.08 551.523 404.712C551.523 404.896 551.507 405.068 551.475 405.228C551.379 405.788 551.135 406.288 550.743 406.728C550.351 407.168 549.827 407.48 549.171 407.664L550.527 411H548.211L547.023 407.82H546.531L545.967 411H543.915L545.403 402.576H548.847ZM549.375 405.312C549.391 405.184 549.399 405.1 549.399 405.06C549.399 404.804 549.315 404.608 549.147 404.472C548.987 404.328 548.747 404.256 548.427 404.256H547.155L546.783 406.368H548.055C548.431 406.368 548.727 406.276 548.943 406.092C549.167 405.908 549.311 405.648 549.375 405.312ZM555.919 404.208C556.783 404.208 557.467 404.444 557.971 404.916C558.483 405.38 558.739 406.016 558.739 406.824C558.739 407.088 558.719 407.324 558.679 407.532C558.647 407.716 558.599 407.912 558.535 408.12H553.891C553.883 408.168 553.879 408.244 553.879 408.348C553.879 408.7 553.975 408.968 554.167 409.152C554.359 409.336 554.615 409.428 554.935 409.428C555.447 409.428 555.839 409.212 556.111 408.78H558.295C558.007 409.46 557.539 410.016 556.891 410.448C556.243 410.88 555.515 411.096 554.707 411.096C553.843 411.096 553.151 410.856 552.631 410.376C552.119 409.896 551.863 409.244 551.863 408.42C551.863 408.172 551.887 407.916 551.935 407.652C552.055 406.956 552.303 406.348 552.679 405.828C553.055 405.308 553.523 404.908 554.083 404.628C554.643 404.348 555.255 404.208 555.919 404.208ZM556.663 407.076C556.679 406.964 556.687 406.888 556.687 406.848C556.687 406.528 556.587 406.284 556.387 406.116C556.187 405.94 555.923 405.852 555.595 405.852C555.243 405.852 554.931 405.96 554.659 406.176C554.395 406.384 554.203 406.684 554.083 407.076H556.663ZM562.762 402.12L561.19 411H559.138L560.71 402.12H562.762ZM562.869 407.64C562.989 406.952 563.225 406.348 563.577 405.828C563.929 405.308 564.353 404.908 564.849 404.628C565.345 404.348 565.869 404.208 566.421 404.208C566.893 404.208 567.289 404.304 567.609 404.496C567.929 404.688 568.161 404.94 568.305 405.252L568.473 404.304H570.525L569.337 411H567.285L567.465 410.052C567.209 410.364 566.885 410.616 566.493 410.808C566.101 411 565.669 411.096 565.197 411.096C564.725 411.096 564.305 410.988 563.937 410.772C563.577 410.556 563.297 410.252 563.097 409.86C562.897 409.46 562.797 408.992 562.797 408.456C562.797 408.2 562.821 407.928 562.869 407.64ZM567.885 407.652C567.909 407.508 567.921 407.376 567.921 407.256C567.921 406.864 567.805 406.556 567.573 406.332C567.349 406.108 567.061 405.996 566.709 405.996C566.301 405.996 565.929 406.144 565.593 406.44C565.257 406.728 565.045 407.128 564.957 407.64C564.933 407.784 564.921 407.916 564.921 408.036C564.921 408.428 565.033 408.74 565.257 408.972C565.489 409.196 565.777 409.308 566.121 409.308C566.529 409.308 566.901 409.16 567.237 408.864C567.573 408.568 567.789 408.164 567.885 407.652ZM574.037 409.344C574.565 409.344 574.961 409.088 575.225 408.576H577.421C577.141 409.256 576.737 409.812 576.209 410.244C575.681 410.676 575.069 410.944 574.373 411.048L574.289 411.492C574.657 411.492 574.969 411.58 575.225 411.756C575.489 411.94 575.621 412.212 575.621 412.572C575.621 412.692 575.613 412.788 575.597 412.86C575.517 413.316 575.293 413.66 574.925 413.892C574.557 414.132 574.145 414.252 573.689 414.252H571.841L572.045 413.124H573.605C573.765 413.124 573.889 413.1 573.977 413.052C574.073 413.004 574.129 412.924 574.145 412.812C574.169 412.7 574.145 412.62 574.073 412.572C574.001 412.532 573.885 412.512 573.725 412.512H572.873L573.137 411.048C572.457 410.936 571.921 410.652 571.529 410.196C571.137 409.732 570.941 409.14 570.941 408.42C570.941 408.172 570.965 407.916 571.013 407.652C571.133 406.956 571.381 406.348 571.757 405.828C572.133 405.308 572.597 404.908 573.149 404.628C573.709 404.348 574.317 404.208 574.973 404.208C575.813 404.208 576.477 404.428 576.965 404.868C577.453 405.308 577.713 405.928 577.745 406.728H575.561C575.473 406.216 575.161 405.96 574.625 405.96C574.249 405.96 573.925 406.108 573.653 406.404C573.381 406.692 573.197 407.108 573.101 407.652C573.069 407.82 573.053 407.996 573.053 408.18C573.053 408.556 573.141 408.844 573.317 409.044C573.493 409.244 573.733 409.344 574.037 409.344ZM578.279 407.64C578.399 406.952 578.635 406.348 578.987 405.828C579.339 405.308 579.763 404.908 580.259 404.628C580.755 404.348 581.279 404.208 581.831 404.208C582.303 404.208 582.699 404.304 583.019 404.496C583.339 404.688 583.571 404.94 583.715 405.252L583.883 404.304H585.935L584.747 411H582.695L582.875 410.052C582.619 410.364 582.295 410.616 581.903 410.808C581.511 411 581.079 411.096 580.607 411.096C580.135 411.096 579.715 410.988 579.347 410.772C578.987 410.556 578.707 410.252 578.507 409.86C578.307 409.46 578.207 408.992 578.207 408.456C578.207 408.2 578.231 407.928 578.279 407.64ZM583.295 407.652C583.319 407.508 583.331 407.376 583.331 407.256C583.331 406.864 583.215 406.556 582.983 406.332C582.759 406.108 582.471 405.996 582.119 405.996C581.711 405.996 581.339 406.144 581.003 406.44C580.667 406.728 580.455 407.128 580.367 407.64C580.343 407.784 580.331 407.916 580.331 408.036C580.331 408.428 580.443 408.74 580.667 408.972C580.899 409.196 581.187 409.308 581.531 409.308C581.939 409.308 582.311 409.16 582.647 408.864C582.983 408.568 583.199 408.164 583.295 407.652ZM580.355 403.68C580.747 402.496 581.403 401.904 582.323 401.904C582.499 401.904 582.651 401.932 582.779 401.988C582.907 402.036 583.051 402.112 583.211 402.216C583.331 402.296 583.435 402.356 583.523 402.396C583.611 402.428 583.703 402.444 583.799 402.444C584.103 402.444 584.307 402.264 584.411 401.904H585.467C585.075 403.088 584.419 403.68 583.499 403.68C583.323 403.68 583.171 403.656 583.043 403.608C582.915 403.552 582.771 403.472 582.611 403.368C582.491 403.288 582.387 403.232 582.299 403.2C582.211 403.16 582.119 403.14 582.023 403.14C581.735 403.14 581.527 403.32 581.399 403.68H580.355ZM589.292 411.096C588.716 411.096 588.204 410.98 587.756 410.748C587.308 410.516 586.96 410.188 586.712 409.764C586.472 409.34 586.352 408.848 586.352 408.288C586.352 407.528 586.532 406.836 586.892 406.212C587.252 405.588 587.748 405.1 588.38 404.748C589.012 404.388 589.716 404.208 590.492 404.208C591.068 404.208 591.58 404.328 592.028 404.568C592.484 404.8 592.836 405.128 593.084 405.552C593.332 405.976 593.456 406.468 593.456 407.028C593.456 407.796 593.272 408.492 592.904 409.116C592.544 409.732 592.044 410.216 591.404 410.568C590.772 410.92 590.068 411.096 589.292 411.096ZM589.58 409.332C589.916 409.332 590.216 409.232 590.48 409.032C590.752 408.824 590.96 408.56 591.104 408.24C591.256 407.912 591.332 407.572 591.332 407.22C591.332 406.82 591.224 406.512 591.008 406.296C590.792 406.08 590.52 405.972 590.192 405.972C589.848 405.972 589.544 406.076 589.28 406.284C589.024 406.484 588.824 406.748 588.68 407.076C588.536 407.404 588.464 407.748 588.464 408.108C588.464 408.5 588.568 408.804 588.776 409.02C588.984 409.228 589.252 409.332 589.58 409.332ZM607.678 402.576L606.19 411H604.138L605.038 405.948L602.254 411H600.598L599.59 405.924L598.702 411H596.65L598.138 402.576H600.562L601.906 408.408L605.266 402.576H607.678ZM611.841 404.208C612.705 404.208 613.389 404.444 613.893 404.916C614.405 405.38 614.661 406.016 614.661 406.824C614.661 407.088 614.641 407.324 614.601 407.532C614.569 407.716 614.521 407.912 614.457 408.12H609.813C609.805 408.168 609.801 408.244 609.801 408.348C609.801 408.7 609.897 408.968 610.089 409.152C610.281 409.336 610.537 409.428 610.857 409.428C611.369 409.428 611.761 409.212 612.033 408.78H614.217C613.929 409.46 613.461 410.016 612.813 410.448C612.165 410.88 611.437 411.096 610.629 411.096C609.765 411.096 609.073 410.856 608.553 410.376C608.041 409.896 607.785 409.244 607.785 408.42C607.785 408.172 607.809 407.916 607.857 407.652C607.977 406.956 608.225 406.348 608.601 405.828C608.977 405.308 609.445 404.908 610.005 404.628C610.565 404.348 611.177 404.208 611.841 404.208ZM612.585 407.076C612.601 406.964 612.609 406.888 612.609 406.848C612.609 406.528 612.509 406.284 612.309 406.116C612.109 405.94 611.845 405.852 611.517 405.852C611.165 405.852 610.853 405.96 610.581 406.176C610.317 406.384 610.125 406.684 610.005 407.076H612.585ZM613.593 402.636L610.473 403.848L610.725 402.432L613.869 401.04L613.593 402.636ZM615.252 407.64C615.372 406.952 615.608 406.348 615.96 405.828C616.312 405.308 616.736 404.908 617.232 404.628C617.728 404.348 618.252 404.208 618.804 404.208C619.244 404.208 619.628 404.3 619.956 404.484C620.292 404.668 620.536 404.916 620.688 405.228L621.24 402.12H623.292L621.72 411H619.668L619.836 410.04C619.58 410.36 619.26 410.616 618.876 410.808C618.492 411 618.064 411.096 617.592 411.096C617.12 411.096 616.7 410.988 616.332 410.772C615.972 410.556 615.688 410.248 615.48 409.848C615.28 409.448 615.18 408.98 615.18 408.444C615.18 408.196 615.204 407.928 615.252 407.64ZM620.268 407.652C620.292 407.508 620.304 407.376 620.304 407.256C620.304 406.864 620.188 406.556 619.956 406.332C619.732 406.108 619.444 405.996 619.092 405.996C618.684 405.996 618.312 406.144 617.976 406.44C617.64 406.728 617.428 407.128 617.34 407.64C617.316 407.784 617.304 407.916 617.304 408.036C617.304 408.428 617.416 408.74 617.64 408.972C617.872 409.196 618.16 409.308 618.504 409.308C618.912 409.308 619.284 409.16 619.62 408.864C619.956 408.568 620.172 408.164 620.268 407.652ZM625.544 403.608C625.224 403.608 624.968 403.524 624.776 403.356C624.592 403.18 624.5 402.96 624.5 402.696C624.5 402.336 624.64 402.028 624.92 401.772C625.2 401.516 625.54 401.388 625.94 401.388C626.26 401.388 626.512 401.476 626.696 401.652C626.88 401.82 626.972 402.04 626.972 402.312C626.972 402.664 626.832 402.968 626.552 403.224C626.272 403.48 625.936 403.608 625.544 403.608ZM626.432 404.304L625.256 411H623.204L624.38 404.304H626.432ZM626.935 407.64C627.055 406.952 627.291 406.348 627.643 405.828C627.995 405.308 628.419 404.908 628.915 404.628C629.411 404.348 629.935 404.208 630.487 404.208C630.959 404.208 631.355 404.304 631.675 404.496C631.995 404.688 632.227 404.94 632.371 405.252L632.539 404.304H634.591L633.403 411H631.351L631.531 410.052C631.275 410.364 630.951 410.616 630.559 410.808C630.167 411 629.735 411.096 629.263 411.096C628.791 411.096 628.371 410.988 628.003 410.772C627.643 410.556 627.363 410.252 627.163 409.86C626.963 409.46 626.863 408.992 626.863 408.456C626.863 408.2 626.887 407.928 626.935 407.64ZM631.951 407.652C631.975 407.508 631.987 407.376 631.987 407.256C631.987 406.864 631.871 406.556 631.639 406.332C631.415 406.108 631.127 405.996 630.775 405.996C630.367 405.996 629.995 406.144 629.659 406.44C629.323 406.728 629.111 407.128 629.023 407.64C628.999 407.784 628.987 407.916 628.987 408.036C628.987 408.428 629.099 408.74 629.323 408.972C629.555 409.196 629.843 409.308 630.187 409.308C630.595 409.308 630.967 409.16 631.303 408.864C631.639 408.568 631.855 408.164 631.951 407.652ZM637.857 407.64C637.977 406.952 638.213 406.348 638.565 405.828C638.917 405.308 639.341 404.908 639.837 404.628C640.333 404.348 640.857 404.208 641.409 404.208C641.849 404.208 642.233 404.3 642.561 404.484C642.897 404.668 643.141 404.916 643.293 405.228L643.845 402.12H645.897L644.325 411H642.273L642.441 410.04C642.185 410.36 641.865 410.616 641.481 410.808C641.097 411 640.669 411.096 640.197 411.096C639.725 411.096 639.305 410.988 638.937 410.772C638.577 410.556 638.293 410.248 638.085 409.848C637.885 409.448 637.785 408.98 637.785 408.444C637.785 408.196 637.809 407.928 637.857 407.64ZM642.873 407.652C642.897 407.508 642.909 407.376 642.909 407.256C642.909 406.864 642.793 406.556 642.561 406.332C642.337 406.108 642.049 405.996 641.697 405.996C641.289 405.996 640.917 406.144 640.581 406.44C640.245 406.728 640.033 407.128 639.945 407.64C639.921 407.784 639.909 407.916 639.909 408.036C639.909 408.428 640.021 408.74 640.245 408.972C640.477 409.196 640.765 409.308 641.109 409.308C641.517 409.308 641.889 409.16 642.225 408.864C642.561 408.568 642.777 408.164 642.873 407.652ZM649.986 404.208C650.85 404.208 651.534 404.444 652.038 404.916C652.55 405.38 652.806 406.016 652.806 406.824C652.806 407.088 652.786 407.324 652.746 407.532C652.714 407.716 652.666 407.912 652.602 408.12H647.958C647.95 408.168 647.946 408.244 647.946 408.348C647.946 408.7 648.042 408.968 648.234 409.152C648.426 409.336 648.682 409.428 649.002 409.428C649.514 409.428 649.906 409.212 650.178 408.78H652.362C652.074 409.46 651.606 410.016 650.958 410.448C650.31 410.88 649.582 411.096 648.774 411.096C647.91 411.096 647.218 410.856 646.698 410.376C646.186 409.896 645.93 409.244 645.93 408.42C645.93 408.172 645.954 407.916 646.002 407.652C646.122 406.956 646.37 406.348 646.746 405.828C647.122 405.308 647.59 404.908 648.15 404.628C648.71 404.348 649.322 404.208 649.986 404.208ZM650.73 407.076C650.746 406.964 650.754 406.888 650.754 406.848C650.754 406.528 650.654 406.284 650.454 406.116C650.254 405.94 649.99 405.852 649.662 405.852C649.31 405.852 648.998 405.96 648.726 406.176C648.462 406.384 648.27 406.684 648.15 407.076H650.73ZM656.39 406.776C656.534 405.944 656.842 405.204 657.314 404.556C657.794 403.9 658.39 403.392 659.102 403.032C659.814 402.664 660.586 402.48 661.418 402.48C662.426 402.48 663.234 402.724 663.842 403.212C664.458 403.7 664.794 404.376 664.85 405.24H662.594C662.49 404.96 662.306 404.748 662.042 404.604C661.786 404.452 661.47 404.376 661.094 404.376C660.43 404.376 659.858 404.596 659.378 405.036C658.906 405.468 658.606 406.048 658.478 406.776C658.438 407.016 658.418 407.224 658.418 407.4C658.418 407.992 658.59 408.448 658.934 408.768C659.278 409.088 659.766 409.248 660.398 409.248C660.91 409.248 661.362 409.12 661.754 408.864C662.146 408.6 662.462 408.228 662.702 407.748H660.11L660.362 406.248H664.826L664.49 408.156C664.25 408.668 663.906 409.144 663.458 409.584C663.018 410.024 662.494 410.38 661.886 410.652C661.278 410.924 660.622 411.06 659.918 411.06C659.19 411.06 658.55 410.92 657.998 410.64C657.454 410.352 657.034 409.952 656.738 409.44C656.45 408.928 656.306 408.332 656.306 407.652C656.306 407.42 656.334 407.128 656.39 406.776ZM665.314 407.64C665.434 406.952 665.67 406.348 666.022 405.828C666.374 405.308 666.798 404.908 667.294 404.628C667.79 404.348 668.314 404.208 668.866 404.208C669.338 404.208 669.734 404.304 670.054 404.496C670.374 404.688 670.606 404.94 670.75 405.252L670.918 404.304H672.97L671.782 411H669.73L669.91 410.052C669.654 410.364 669.33 410.616 668.938 410.808C668.546 411 668.114 411.096 667.642 411.096C667.17 411.096 666.75 410.988 666.382 410.772C666.022 410.556 665.742 410.252 665.542 409.86C665.342 409.46 665.242 408.992 665.242 408.456C665.242 408.2 665.266 407.928 665.314 407.64ZM670.33 407.652C670.354 407.508 670.366 407.376 670.366 407.256C670.366 406.864 670.25 406.556 670.018 406.332C669.794 406.108 669.506 405.996 669.154 405.996C668.746 405.996 668.374 406.144 668.038 406.44C667.702 406.728 667.49 407.128 667.402 407.64C667.378 407.784 667.366 407.916 667.366 408.036C667.366 408.428 667.478 408.74 667.702 408.972C667.934 409.196 668.222 409.308 668.566 409.308C668.974 409.308 669.346 409.16 669.682 408.864C670.018 408.568 670.234 408.164 670.33 407.652ZM676.051 411.096C675.523 411.096 675.047 411.012 674.623 410.844C674.207 410.676 673.879 410.444 673.639 410.148C673.399 409.844 673.279 409.496 673.279 409.104C673.279 409.048 673.287 408.948 673.303 408.804H675.283C675.267 409.052 675.339 409.252 675.499 409.404C675.667 409.548 675.903 409.62 676.207 409.62C676.463 409.62 676.675 409.572 676.843 409.476C677.011 409.38 677.095 409.244 677.095 409.068C677.095 408.9 677.003 408.768 676.819 408.672C676.643 408.568 676.347 408.444 675.931 408.3C675.499 408.156 675.135 408.016 674.839 407.88C674.551 407.736 674.303 407.532 674.095 407.268C673.887 407.004 673.783 406.672 673.783 406.272C673.783 405.88 673.899 405.528 674.131 405.216C674.363 404.896 674.687 404.648 675.103 404.472C675.527 404.296 676.015 404.208 676.567 404.208C677.119 404.208 677.599 404.3 678.007 404.484C678.415 404.66 678.731 404.908 678.955 405.228C679.179 405.548 679.291 405.908 679.291 406.308L679.279 406.488H677.419C677.435 406.248 677.363 406.056 677.203 405.912C677.043 405.768 676.815 405.696 676.519 405.696C676.287 405.696 676.095 405.744 675.943 405.84C675.799 405.936 675.727 406.068 675.727 406.236C675.727 406.412 675.823 406.56 676.015 406.68C676.215 406.792 676.523 406.92 676.939 407.064C677.371 407.208 677.727 407.352 678.007 407.496C678.295 407.632 678.539 407.828 678.739 408.084C678.947 408.332 679.051 408.644 679.051 409.02C679.051 409.452 678.919 409.824 678.655 410.136C678.399 410.448 678.043 410.688 677.587 410.856C677.139 411.016 676.627 411.096 676.051 411.096ZM682.742 408.696C682.734 408.736 682.73 408.788 682.73 408.852C682.73 408.996 682.77 409.1 682.85 409.164C682.938 409.228 683.078 409.26 683.27 409.26H684.002L683.69 411H682.646C681.302 411 680.63 410.436 680.63 409.308C680.63 409.14 680.65 408.928 680.69 408.672L681.17 406.008H680.354L680.654 404.304H681.47L681.758 402.672H683.81L683.522 404.304H684.866L684.566 406.008H683.222L682.742 408.696ZM687.893 411.096C687.317 411.096 686.805 410.98 686.357 410.748C685.909 410.516 685.561 410.188 685.313 409.764C685.073 409.34 684.953 408.848 684.953 408.288C684.953 407.528 685.133 406.836 685.493 406.212C685.853 405.588 686.349 405.1 686.981 404.748C687.613 404.388 688.317 404.208 689.093 404.208C689.669 404.208 690.181 404.328 690.629 404.568C691.085 404.8 691.437 405.128 691.685 405.552C691.933 405.976 692.057 406.468 692.057 407.028C692.057 407.796 691.873 408.492 691.505 409.116C691.145 409.732 690.645 410.216 690.005 410.568C689.373 410.92 688.669 411.096 687.893 411.096ZM688.181 409.332C688.517 409.332 688.817 409.232 689.081 409.032C689.353 408.824 689.561 408.56 689.705 408.24C689.857 407.912 689.933 407.572 689.933 407.22C689.933 406.82 689.825 406.512 689.609 406.296C689.393 406.08 689.121 405.972 688.793 405.972C688.449 405.972 688.145 406.076 687.881 406.284C687.625 406.484 687.425 406.748 687.281 407.076C687.137 407.404 687.065 407.748 687.065 408.108C687.065 408.5 687.169 408.804 687.377 409.02C687.585 409.228 687.853 409.332 688.181 409.332ZM695.258 411.096C694.73 411.096 694.254 411.012 693.83 410.844C693.414 410.676 693.086 410.444 692.846 410.148C692.606 409.844 692.486 409.496 692.486 409.104C692.486 409.048 692.494 408.948 692.51 408.804H694.49C694.474 409.052 694.546 409.252 694.706 409.404C694.874 409.548 695.11 409.62 695.414 409.62C695.67 409.62 695.882 409.572 696.05 409.476C696.218 409.38 696.302 409.244 696.302 409.068C696.302 408.9 696.21 408.768 696.026 408.672C695.85 408.568 695.554 408.444 695.138 408.3C694.706 408.156 694.342 408.016 694.046 407.88C693.758 407.736 693.51 407.532 693.302 407.268C693.094 407.004 692.99 406.672 692.99 406.272C692.99 405.88 693.106 405.528 693.338 405.216C693.57 404.896 693.894 404.648 694.31 404.472C694.734 404.296 695.222 404.208 695.774 404.208C696.326 404.208 696.806 404.3 697.214 404.484C697.622 404.66 697.938 404.908 698.162 405.228C698.386 405.548 698.498 405.908 698.498 406.308L698.486 406.488H696.626C696.642 406.248 696.57 406.056 696.41 405.912C696.25 405.768 696.022 405.696 695.726 405.696C695.494 405.696 695.302 405.744 695.15 405.84C695.006 405.936 694.934 406.068 694.934 406.236C694.934 406.412 695.03 406.56 695.222 406.68C695.422 406.792 695.73 406.92 696.146 407.064C696.578 407.208 696.934 407.352 697.214 407.496C697.502 407.632 697.746 407.828 697.946 408.084C698.154 408.332 698.258 408.644 698.258 409.02C698.258 409.452 698.126 409.824 697.862 410.136C697.606 410.448 697.25 410.688 696.794 410.856C696.346 411.016 695.834 411.096 695.258 411.096ZM706.491 407.688L708.207 411H705.903L704.943 409.152L703.539 411H701.319L704.127 407.58L702.435 404.304H704.739L705.699 406.164L707.103 404.304H709.323L706.491 407.688ZM717.283 409.512H714.139L713.371 411H711.223L715.759 402.576H718.135L719.695 411H717.523L717.283 409.512ZM717.043 407.952L716.551 404.832L714.943 407.952H717.043ZM725.89 404.232C726.562 404.232 727.09 404.42 727.474 404.796C727.858 405.172 728.05 405.696 728.05 406.368C728.05 406.592 728.026 406.832 727.978 407.088L727.282 411H725.242L725.89 407.364C725.914 407.228 725.926 407.108 725.926 407.004C725.926 406.668 725.83 406.408 725.638 406.224C725.454 406.04 725.194 405.948 724.858 405.948C724.458 405.948 724.122 406.072 723.85 406.32C723.578 406.568 723.402 406.916 723.322 407.364V407.304L722.674 411H720.622L721.798 404.304H723.85L723.694 405.204C723.958 404.908 724.278 404.672 724.654 404.496C725.038 404.32 725.45 404.232 725.89 404.232ZM731.768 411.096C731.192 411.096 730.68 410.98 730.232 410.748C729.784 410.516 729.436 410.188 729.188 409.764C728.948 409.34 728.828 408.848 728.828 408.288C728.828 407.528 729.008 406.836 729.368 406.212C729.728 405.588 730.224 405.1 730.856 404.748C731.488 404.388 732.192 404.208 732.968 404.208C733.544 404.208 734.056 404.328 734.504 404.568C734.96 404.8 735.312 405.128 735.56 405.552C735.808 405.976 735.932 406.468 735.932 407.028C735.932 407.796 735.748 408.492 735.38 409.116C735.02 409.732 734.52 410.216 733.88 410.568C733.248 410.92 732.544 411.096 731.768 411.096ZM732.056 409.332C732.392 409.332 732.692 409.232 732.956 409.032C733.228 408.824 733.436 408.56 733.58 408.24C733.732 407.912 733.808 407.572 733.808 407.22C733.808 406.82 733.7 406.512 733.484 406.296C733.268 406.08 732.996 405.972 732.668 405.972C732.324 405.972 732.02 406.076 731.756 406.284C731.5 406.484 731.3 406.748 731.156 407.076C731.012 407.404 730.94 407.748 730.94 408.108C730.94 408.5 731.044 408.804 731.252 409.02C731.46 409.228 731.728 409.332 732.056 409.332Z" fill="white"/>
<rect x="40.9974" y="96.9974" width="1198.01" height="276.005" rx="29.0026" fill="url(#paint4_linear_211_530)" stroke="url(#paint5_linear_211_530)" stroke-width="1.99489"/>
<path d="M553.112 104.776C553.256 103.944 553.564 103.204 554.036 102.556C554.516 101.9 555.112 101.392 555.824 101.032C556.536 100.664 557.308 100.48 558.14 100.48C559.148 100.48 559.956 100.724 560.564 101.212C561.18 101.7 561.516 102.376 561.572 103.24H559.316C559.212 102.96 559.028 102.748 558.764 102.604C558.508 102.452 558.192 102.376 557.816 102.376C557.152 102.376 556.58 102.596 556.1 103.036C555.628 103.468 555.328 104.048 555.2 104.776C555.16 105.016 555.14 105.224 555.14 105.4C555.14 105.992 555.312 106.448 555.656 106.768C556 107.088 556.488 107.248 557.12 107.248C557.632 107.248 558.084 107.12 558.476 106.864C558.868 106.6 559.184 106.228 559.424 105.748H556.832L557.084 104.248H561.548L561.212 106.156C560.972 106.668 560.628 107.144 560.18 107.584C559.74 108.024 559.216 108.38 558.608 108.652C558 108.924 557.344 109.06 556.64 109.06C555.912 109.06 555.272 108.92 554.72 108.64C554.176 108.352 553.756 107.952 553.46 107.44C553.172 106.928 553.028 106.332 553.028 105.652C553.028 105.42 553.056 105.128 553.112 104.776ZM562.037 105.64C562.157 104.952 562.393 104.348 562.745 103.828C563.097 103.308 563.521 102.908 564.017 102.628C564.513 102.348 565.037 102.208 565.589 102.208C566.061 102.208 566.457 102.304 566.777 102.496C567.097 102.688 567.329 102.94 567.473 103.252L567.641 102.304H569.693L568.505 109H566.453L566.633 108.052C566.377 108.364 566.053 108.616 565.661 108.808C565.269 109 564.837 109.096 564.365 109.096C563.893 109.096 563.473 108.988 563.105 108.772C562.745 108.556 562.465 108.252 562.265 107.86C562.065 107.46 561.965 106.992 561.965 106.456C561.965 106.2 561.989 105.928 562.037 105.64ZM567.053 105.652C567.077 105.508 567.089 105.376 567.089 105.256C567.089 104.864 566.973 104.556 566.741 104.332C566.517 104.108 566.229 103.996 565.877 103.996C565.469 103.996 565.097 104.144 564.761 104.44C564.425 104.728 564.213 105.128 564.125 105.64C564.101 105.784 564.089 105.916 564.089 106.036C564.089 106.428 564.201 106.74 564.425 106.972C564.657 107.196 564.945 107.308 565.289 107.308C565.697 107.308 566.069 107.16 566.405 106.864C566.741 106.568 566.957 106.164 567.053 105.652ZM572.773 109.096C572.245 109.096 571.769 109.012 571.345 108.844C570.929 108.676 570.601 108.444 570.361 108.148C570.121 107.844 570.001 107.496 570.001 107.104C570.001 107.048 570.009 106.948 570.025 106.804H572.005C571.989 107.052 572.061 107.252 572.221 107.404C572.389 107.548 572.625 107.62 572.929 107.62C573.185 107.62 573.397 107.572 573.565 107.476C573.733 107.38 573.817 107.244 573.817 107.068C573.817 106.9 573.725 106.768 573.541 106.672C573.365 106.568 573.069 106.444 572.653 106.3C572.221 106.156 571.857 106.016 571.561 105.88C571.273 105.736 571.025 105.532 570.817 105.268C570.609 105.004 570.505 104.672 570.505 104.272C570.505 103.88 570.621 103.528 570.853 103.216C571.085 102.896 571.409 102.648 571.825 102.472C572.249 102.296 572.737 102.208 573.289 102.208C573.841 102.208 574.321 102.3 574.729 102.484C575.137 102.66 575.453 102.908 575.677 103.228C575.901 103.548 576.013 103.908 576.013 104.308L576.001 104.488H574.141C574.157 104.248 574.085 104.056 573.925 103.912C573.765 103.768 573.537 103.696 573.241 103.696C573.009 103.696 572.817 103.744 572.665 103.84C572.521 103.936 572.449 104.068 572.449 104.236C572.449 104.412 572.545 104.56 572.737 104.68C572.937 104.792 573.245 104.92 573.661 105.064C574.093 105.208 574.449 105.352 574.729 105.496C575.017 105.632 575.261 105.828 575.461 106.084C575.669 106.332 575.773 106.644 575.773 107.02C575.773 107.452 575.641 107.824 575.377 108.136C575.121 108.448 574.765 108.688 574.309 108.856C573.861 109.016 573.349 109.096 572.773 109.096ZM579.465 106.696C579.457 106.736 579.453 106.788 579.453 106.852C579.453 106.996 579.493 107.1 579.573 107.164C579.661 107.228 579.801 107.26 579.993 107.26H580.725L580.413 109H579.369C578.025 109 577.353 108.436 577.353 107.308C577.353 107.14 577.373 106.928 577.413 106.672L577.893 104.008H577.077L577.377 102.304H578.193L578.481 100.672H580.533L580.245 102.304H581.589L581.289 104.008H579.945L579.465 106.696ZM584.616 109.096C584.04 109.096 583.528 108.98 583.08 108.748C582.632 108.516 582.284 108.188 582.036 107.764C581.796 107.34 581.676 106.848 581.676 106.288C581.676 105.528 581.856 104.836 582.216 104.212C582.576 103.588 583.072 103.1 583.704 102.748C584.336 102.388 585.04 102.208 585.816 102.208C586.392 102.208 586.904 102.328 587.352 102.568C587.808 102.8 588.16 103.128 588.408 103.552C588.656 103.976 588.78 104.468 588.78 105.028C588.78 105.796 588.596 106.492 588.228 107.116C587.868 107.732 587.368 108.216 586.728 108.568C586.096 108.92 585.392 109.096 584.616 109.096ZM584.904 107.332C585.24 107.332 585.54 107.232 585.804 107.032C586.076 106.824 586.284 106.56 586.428 106.24C586.58 105.912 586.656 105.572 586.656 105.22C586.656 104.82 586.548 104.512 586.332 104.296C586.116 104.08 585.844 103.972 585.516 103.972C585.172 103.972 584.868 104.076 584.604 104.284C584.348 104.484 584.148 104.748 584.004 105.076C583.86 105.404 583.788 105.748 583.788 106.108C583.788 106.5 583.892 106.804 584.1 107.02C584.308 107.228 584.576 107.332 584.904 107.332ZM591.98 109.096C591.452 109.096 590.976 109.012 590.552 108.844C590.136 108.676 589.808 108.444 589.568 108.148C589.328 107.844 589.208 107.496 589.208 107.104C589.208 107.048 589.216 106.948 589.232 106.804H591.212C591.196 107.052 591.268 107.252 591.428 107.404C591.596 107.548 591.832 107.62 592.136 107.62C592.392 107.62 592.604 107.572 592.772 107.476C592.94 107.38 593.024 107.244 593.024 107.068C593.024 106.9 592.932 106.768 592.748 106.672C592.572 106.568 592.276 106.444 591.86 106.3C591.428 106.156 591.064 106.016 590.768 105.88C590.48 105.736 590.232 105.532 590.024 105.268C589.816 105.004 589.712 104.672 589.712 104.272C589.712 103.88 589.828 103.528 590.06 103.216C590.292 102.896 590.616 102.648 591.032 102.472C591.456 102.296 591.944 102.208 592.496 102.208C593.048 102.208 593.528 102.3 593.936 102.484C594.344 102.66 594.66 102.908 594.884 103.228C595.108 103.548 595.22 103.908 595.22 104.308L595.208 104.488H593.348C593.364 104.248 593.292 104.056 593.132 103.912C592.972 103.768 592.744 103.696 592.448 103.696C592.216 103.696 592.024 103.744 591.872 103.84C591.728 103.936 591.656 104.068 591.656 104.236C591.656 104.412 591.752 104.56 591.944 104.68C592.144 104.792 592.452 104.92 592.868 105.064C593.3 105.208 593.656 105.352 593.936 105.496C594.224 105.632 594.468 105.828 594.668 106.084C594.876 106.332 594.98 106.644 594.98 107.02C594.98 107.452 594.848 107.824 594.584 108.136C594.328 108.448 593.972 108.688 593.516 108.856C593.068 109.016 592.556 109.096 591.98 109.096ZM602.841 102.208C603.705 102.208 604.389 102.444 604.893 102.916C605.405 103.38 605.661 104.016 605.661 104.824C605.661 105.088 605.641 105.324 605.601 105.532C605.569 105.716 605.521 105.912 605.457 106.12H600.813C600.805 106.168 600.801 106.244 600.801 106.348C600.801 106.7 600.897 106.968 601.089 107.152C601.281 107.336 601.537 107.428 601.857 107.428C602.369 107.428 602.761 107.212 603.033 106.78H605.217C604.929 107.46 604.461 108.016 603.813 108.448C603.165 108.88 602.437 109.096 601.629 109.096C600.765 109.096 600.073 108.856 599.553 108.376C599.041 107.896 598.785 107.244 598.785 106.42C598.785 106.172 598.809 105.916 598.857 105.652C598.977 104.956 599.225 104.348 599.601 103.828C599.977 103.308 600.445 102.908 601.005 102.628C601.565 102.348 602.177 102.208 602.841 102.208ZM603.585 105.076C603.601 104.964 603.609 104.888 603.609 104.848C603.609 104.528 603.509 104.284 603.309 104.116C603.109 103.94 602.845 103.852 602.517 103.852C602.165 103.852 601.853 103.96 601.581 104.176C601.317 104.384 601.125 104.684 601.005 105.076H603.585ZM615.804 102.232C616.524 102.232 617.084 102.424 617.484 102.808C617.892 103.184 618.096 103.712 618.096 104.392C618.096 104.6 618.072 104.832 618.024 105.088L617.328 109H615.288L615.936 105.364C615.952 105.284 615.96 105.176 615.96 105.04C615.96 104.704 615.864 104.448 615.672 104.272C615.488 104.096 615.228 104.008 614.892 104.008C614.492 104.008 614.156 104.128 613.884 104.368C613.612 104.6 613.44 104.932 613.368 105.364L612.72 109H610.68L611.328 105.364C611.344 105.284 611.352 105.176 611.352 105.04C611.352 104.704 611.256 104.448 611.064 104.272C610.88 104.096 610.62 104.008 610.284 104.008C609.884 104.008 609.548 104.128 609.276 104.368C609.004 104.6 608.832 104.932 608.76 105.364V105.304L608.112 109H606.06L607.236 102.304H609.288L609.144 103.156C609.4 102.868 609.708 102.644 610.068 102.484C610.436 102.316 610.832 102.232 611.256 102.232C611.768 102.232 612.2 102.34 612.552 102.556C612.912 102.772 613.168 103.084 613.32 103.492C613.616 103.116 613.984 102.812 614.424 102.58C614.864 102.348 615.324 102.232 615.804 102.232ZM621.732 105.64C621.852 104.952 622.088 104.348 622.44 103.828C622.792 103.308 623.216 102.908 623.712 102.628C624.208 102.348 624.732 102.208 625.284 102.208C625.724 102.208 626.108 102.3 626.436 102.484C626.772 102.668 627.016 102.916 627.168 103.228L627.72 100.12H629.772L628.2 109H626.148L626.316 108.04C626.06 108.36 625.74 108.616 625.356 108.808C624.972 109 624.544 109.096 624.072 109.096C623.6 109.096 623.18 108.988 622.812 108.772C622.452 108.556 622.168 108.248 621.96 107.848C621.76 107.448 621.66 106.98 621.66 106.444C621.66 106.196 621.684 105.928 621.732 105.64ZM626.748 105.652C626.772 105.508 626.784 105.376 626.784 105.256C626.784 104.864 626.668 104.556 626.436 104.332C626.212 104.108 625.924 103.996 625.572 103.996C625.164 103.996 624.792 104.144 624.456 104.44C624.12 104.728 623.908 105.128 623.82 105.64C623.796 105.784 623.784 105.916 623.784 106.036C623.784 106.428 623.896 106.74 624.12 106.972C624.352 107.196 624.64 107.308 624.984 107.308C625.392 107.308 625.764 107.16 626.1 106.864C626.436 106.568 626.652 106.164 626.748 105.652ZM632.025 101.608C631.705 101.608 631.449 101.524 631.257 101.356C631.073 101.18 630.981 100.96 630.981 100.696C630.981 100.336 631.121 100.028 631.401 99.772C631.681 99.516 632.021 99.388 632.421 99.388C632.741 99.388 632.993 99.476 633.177 99.652C633.361 99.82 633.453 100.04 633.453 100.312C633.453 100.664 633.313 100.968 633.033 101.224C632.753 101.48 632.417 101.608 632.025 101.608ZM632.913 102.304L631.737 109H629.685L630.861 102.304H632.913ZM637.904 101.344C637.512 101.32 637.224 101.376 637.04 101.512C636.864 101.648 636.744 101.892 636.68 102.244L636.668 102.304H637.772L637.472 104.008H636.368L635.492 109H633.428L634.304 104.008H633.56L633.86 102.304H634.604L634.64 102.112C634.792 101.288 635.14 100.664 635.684 100.24C636.236 99.808 636.968 99.592 637.88 99.592C638.024 99.592 638.132 99.596 638.204 99.604L637.904 101.344ZM641.724 102.208C642.588 102.208 643.272 102.444 643.776 102.916C644.288 103.38 644.544 104.016 644.544 104.824C644.544 105.088 644.524 105.324 644.484 105.532C644.452 105.716 644.404 105.912 644.34 106.12H639.696C639.688 106.168 639.684 106.244 639.684 106.348C639.684 106.7 639.78 106.968 639.972 107.152C640.164 107.336 640.42 107.428 640.74 107.428C641.252 107.428 641.644 107.212 641.916 106.78H644.1C643.812 107.46 643.344 108.016 642.696 108.448C642.048 108.88 641.32 109.096 640.512 109.096C639.648 109.096 638.956 108.856 638.436 108.376C637.924 107.896 637.668 107.244 637.668 106.42C637.668 106.172 637.692 105.916 637.74 105.652C637.86 104.956 638.108 104.348 638.484 103.828C638.86 103.308 639.328 102.908 639.888 102.628C640.448 102.348 641.06 102.208 641.724 102.208ZM642.468 105.076C642.484 104.964 642.492 104.888 642.492 104.848C642.492 104.528 642.392 104.284 642.192 104.116C641.992 103.94 641.728 103.852 641.4 103.852C641.048 103.852 640.736 103.96 640.464 104.176C640.2 104.384 640.008 104.684 639.888 105.076H642.468ZM647.955 103.516C648.267 103.116 648.623 102.804 649.023 102.58C649.431 102.348 649.855 102.232 650.295 102.232L649.911 104.404H649.347C648.835 104.404 648.431 104.516 648.135 104.74C647.839 104.956 647.643 105.34 647.547 105.892L646.995 109H644.943L646.119 102.304H648.171L647.955 103.516ZM654.251 102.208C655.115 102.208 655.799 102.444 656.303 102.916C656.815 103.38 657.071 104.016 657.071 104.824C657.071 105.088 657.051 105.324 657.011 105.532C656.979 105.716 656.931 105.912 656.867 106.12H652.223C652.215 106.168 652.211 106.244 652.211 106.348C652.211 106.7 652.307 106.968 652.499 107.152C652.691 107.336 652.947 107.428 653.267 107.428C653.779 107.428 654.171 107.212 654.443 106.78H656.627C656.339 107.46 655.871 108.016 655.223 108.448C654.575 108.88 653.847 109.096 653.039 109.096C652.175 109.096 651.483 108.856 650.963 108.376C650.451 107.896 650.195 107.244 650.195 106.42C650.195 106.172 650.219 105.916 650.267 105.652C650.387 104.956 650.635 104.348 651.011 103.828C651.387 103.308 651.855 102.908 652.415 102.628C652.975 102.348 653.587 102.208 654.251 102.208ZM654.995 105.076C655.011 104.964 655.019 104.888 655.019 104.848C655.019 104.528 654.919 104.284 654.719 104.116C654.519 103.94 654.255 103.852 653.927 103.852C653.575 103.852 653.263 103.96 652.991 104.176C652.727 104.384 652.535 104.684 652.415 105.076H654.995ZM662.738 102.232C663.41 102.232 663.938 102.42 664.322 102.796C664.706 103.172 664.898 103.696 664.898 104.368C664.898 104.592 664.874 104.832 664.826 105.088L664.13 109H662.09L662.738 105.364C662.762 105.228 662.774 105.108 662.774 105.004C662.774 104.668 662.678 104.408 662.486 104.224C662.302 104.04 662.042 103.948 661.706 103.948C661.306 103.948 660.97 104.072 660.698 104.32C660.426 104.568 660.25 104.916 660.17 105.364V105.304L659.522 109H657.47L658.646 102.304H660.698L660.542 103.204C660.806 102.908 661.126 102.672 661.502 102.496C661.886 102.32 662.298 102.232 662.738 102.232ZM668.34 106.696C668.332 106.736 668.328 106.788 668.328 106.852C668.328 106.996 668.368 107.1 668.448 107.164C668.536 107.228 668.676 107.26 668.868 107.26H669.6L669.288 109H668.244C666.9 109 666.228 108.436 666.228 107.308C666.228 107.14 666.248 106.928 666.288 106.672L666.768 104.008H665.952L666.252 102.304H667.068L667.356 100.672H669.408L669.12 102.304H670.464L670.164 104.008H668.82L668.34 106.696ZM674.607 102.208C675.471 102.208 676.155 102.444 676.659 102.916C677.171 103.38 677.427 104.016 677.427 104.824C677.427 105.088 677.407 105.324 677.367 105.532C677.335 105.716 677.287 105.912 677.223 106.12H672.579C672.571 106.168 672.567 106.244 672.567 106.348C672.567 106.7 672.663 106.968 672.855 107.152C673.047 107.336 673.303 107.428 673.623 107.428C674.135 107.428 674.527 107.212 674.799 106.78H676.983C676.695 107.46 676.227 108.016 675.579 108.448C674.931 108.88 674.203 109.096 673.395 109.096C672.531 109.096 671.839 108.856 671.319 108.376C670.807 107.896 670.551 107.244 670.551 106.42C670.551 106.172 670.575 105.916 670.623 105.652C670.743 104.956 670.991 104.348 671.367 103.828C671.743 103.308 672.211 102.908 672.771 102.628C673.331 102.348 673.943 102.208 674.607 102.208ZM675.351 105.076C675.367 104.964 675.375 104.888 675.375 104.848C675.375 104.528 675.275 104.284 675.075 104.116C674.875 103.94 674.611 103.852 674.283 103.852C673.931 103.852 673.619 103.96 673.347 104.176C673.083 104.384 672.891 104.684 672.771 105.076H675.351ZM680.609 109.096C680.081 109.096 679.605 109.012 679.181 108.844C678.765 108.676 678.437 108.444 678.197 108.148C677.957 107.844 677.837 107.496 677.837 107.104C677.837 107.048 677.845 106.948 677.861 106.804H679.841C679.825 107.052 679.897 107.252 680.057 107.404C680.225 107.548 680.461 107.62 680.765 107.62C681.021 107.62 681.233 107.572 681.401 107.476C681.569 107.38 681.653 107.244 681.653 107.068C681.653 106.9 681.561 106.768 681.377 106.672C681.201 106.568 680.905 106.444 680.489 106.3C680.057 106.156 679.693 106.016 679.397 105.88C679.109 105.736 678.861 105.532 678.653 105.268C678.445 105.004 678.341 104.672 678.341 104.272C678.341 103.88 678.457 103.528 678.689 103.216C678.921 102.896 679.245 102.648 679.661 102.472C680.085 102.296 680.573 102.208 681.125 102.208C681.677 102.208 682.157 102.3 682.565 102.484C682.973 102.66 683.289 102.908 683.513 103.228C683.737 103.548 683.849 103.908 683.849 104.308L683.837 104.488H681.977C681.993 104.248 681.921 104.056 681.761 103.912C681.601 103.768 681.373 103.696 681.077 103.696C680.845 103.696 680.653 103.744 680.501 103.84C680.357 103.936 680.285 104.068 680.285 104.236C680.285 104.412 680.381 104.56 680.573 104.68C680.773 104.792 681.081 104.92 681.497 105.064C681.929 105.208 682.285 105.352 682.565 105.496C682.853 105.632 683.097 105.828 683.297 106.084C683.505 106.332 683.609 106.644 683.609 107.02C683.609 107.452 683.477 107.824 683.213 108.136C682.957 108.448 682.601 108.688 682.145 108.856C681.697 109.016 681.185 109.096 680.609 109.096ZM694.722 103.288C694.642 103.776 694.454 104.224 694.158 104.632C693.862 105.032 693.458 105.356 692.946 105.604C692.442 105.852 691.846 105.976 691.158 105.976H689.886L689.346 109H687.294L688.782 100.576H692.106C692.986 100.576 693.65 100.772 694.098 101.164C694.546 101.548 694.77 102.072 694.77 102.736C694.77 102.936 694.754 103.12 694.722 103.288ZM691.278 104.368C692.046 104.368 692.498 104.008 692.634 103.288C692.65 103.16 692.658 103.068 692.658 103.012C692.658 102.756 692.574 102.56 692.406 102.424C692.246 102.28 691.998 102.208 691.662 102.208H690.546L690.174 104.368H691.278ZM694.974 105.64C695.094 104.952 695.33 104.348 695.682 103.828C696.034 103.308 696.458 102.908 696.954 102.628C697.45 102.348 697.974 102.208 698.526 102.208C698.998 102.208 699.394 102.304 699.714 102.496C700.034 102.688 700.266 102.94 700.41 103.252L700.578 102.304H702.63L701.442 109H699.39L699.57 108.052C699.314 108.364 698.99 108.616 698.598 108.808C698.206 109 697.774 109.096 697.302 109.096C696.83 109.096 696.41 108.988 696.042 108.772C695.682 108.556 695.402 108.252 695.202 107.86C695.002 107.46 694.902 106.992 694.902 106.456C694.902 106.2 694.926 105.928 694.974 105.64ZM699.99 105.652C700.014 105.508 700.026 105.376 700.026 105.256C700.026 104.864 699.91 104.556 699.678 104.332C699.454 104.108 699.166 103.996 698.814 103.996C698.406 103.996 698.034 104.144 697.698 104.44C697.362 104.728 697.15 105.128 697.062 105.64C697.038 105.784 697.026 105.916 697.026 106.036C697.026 106.428 697.138 106.74 697.362 106.972C697.594 107.196 697.882 107.308 698.226 107.308C698.634 107.308 699.006 107.16 699.342 106.864C699.678 106.568 699.894 106.164 699.99 105.652ZM706.323 102.304L705.135 109H703.083L704.271 102.304H706.323ZM706.995 100.636L703.875 101.848L704.127 100.432L707.271 99.04L706.995 100.636ZM709.566 109.096C709.038 109.096 708.562 109.012 708.138 108.844C707.722 108.676 707.394 108.444 707.154 108.148C706.914 107.844 706.794 107.496 706.794 107.104C706.794 107.048 706.802 106.948 706.818 106.804H708.798C708.782 107.052 708.854 107.252 709.014 107.404C709.182 107.548 709.418 107.62 709.722 107.62C709.978 107.62 710.19 107.572 710.358 107.476C710.526 107.38 710.61 107.244 710.61 107.068C710.61 106.9 710.518 106.768 710.334 106.672C710.158 106.568 709.862 106.444 709.446 106.3C709.014 106.156 708.65 106.016 708.354 105.88C708.066 105.736 707.818 105.532 707.61 105.268C707.402 105.004 707.298 104.672 707.298 104.272C707.298 103.88 707.414 103.528 707.646 103.216C707.878 102.896 708.202 102.648 708.618 102.472C709.042 102.296 709.53 102.208 710.082 102.208C710.634 102.208 711.114 102.3 711.522 102.484C711.93 102.66 712.246 102.908 712.47 103.228C712.694 103.548 712.806 103.908 712.806 104.308L712.794 104.488H710.934C710.95 104.248 710.878 104.056 710.718 103.912C710.558 103.768 710.33 103.696 710.034 103.696C709.802 103.696 709.61 103.744 709.458 103.84C709.314 103.936 709.242 104.068 709.242 104.236C709.242 104.412 709.338 104.56 709.53 104.68C709.73 104.792 710.038 104.92 710.454 105.064C710.886 105.208 711.242 105.352 711.522 105.496C711.81 105.632 712.054 105.828 712.254 106.084C712.462 106.332 712.566 106.644 712.566 107.02C712.566 107.452 712.434 107.824 712.17 108.136C711.914 108.448 711.558 108.688 711.102 108.856C710.654 109.016 710.142 109.096 709.566 109.096ZM717.65 102.208C718.514 102.208 719.198 102.444 719.702 102.916C720.214 103.38 720.47 104.016 720.47 104.824C720.47 105.088 720.45 105.324 720.41 105.532C720.378 105.716 720.33 105.912 720.266 106.12H715.622C715.614 106.168 715.61 106.244 715.61 106.348C715.61 106.7 715.706 106.968 715.898 107.152C716.09 107.336 716.346 107.428 716.666 107.428C717.178 107.428 717.57 107.212 717.842 106.78H720.026C719.738 107.46 719.27 108.016 718.622 108.448C717.974 108.88 717.246 109.096 716.438 109.096C715.574 109.096 714.882 108.856 714.362 108.376C713.85 107.896 713.594 107.244 713.594 106.42C713.594 106.172 713.618 105.916 713.666 105.652C713.786 104.956 714.034 104.348 714.41 103.828C714.786 103.308 715.254 102.908 715.814 102.628C716.374 102.348 716.986 102.208 717.65 102.208ZM718.394 105.076C718.41 104.964 718.418 104.888 718.418 104.848C718.418 104.528 718.318 104.284 718.118 104.116C717.918 103.94 717.654 103.852 717.326 103.852C716.974 103.852 716.662 103.96 716.39 104.176C716.126 104.384 715.934 104.684 715.814 105.076H718.394ZM723.652 109.096C723.124 109.096 722.648 109.012 722.224 108.844C721.808 108.676 721.48 108.444 721.24 108.148C721 107.844 720.88 107.496 720.88 107.104C720.88 107.048 720.888 106.948 720.904 106.804H722.884C722.868 107.052 722.94 107.252 723.1 107.404C723.268 107.548 723.504 107.62 723.808 107.62C724.064 107.62 724.276 107.572 724.444 107.476C724.612 107.38 724.696 107.244 724.696 107.068C724.696 106.9 724.604 106.768 724.42 106.672C724.244 106.568 723.948 106.444 723.532 106.3C723.1 106.156 722.736 106.016 722.44 105.88C722.152 105.736 721.904 105.532 721.696 105.268C721.488 105.004 721.384 104.672 721.384 104.272C721.384 103.88 721.5 103.528 721.732 103.216C721.964 102.896 722.288 102.648 722.704 102.472C723.128 102.296 723.616 102.208 724.168 102.208C724.72 102.208 725.2 102.3 725.608 102.484C726.016 102.66 726.332 102.908 726.556 103.228C726.78 103.548 726.892 103.908 726.892 104.308L726.88 104.488H725.02C725.036 104.248 724.964 104.056 724.804 103.912C724.644 103.768 724.416 103.696 724.12 103.696C723.888 103.696 723.696 103.744 723.544 103.84C723.4 103.936 723.328 104.068 723.328 104.236C723.328 104.412 723.424 104.56 723.616 104.68C723.816 104.792 724.124 104.92 724.54 105.064C724.972 105.208 725.328 105.352 725.608 105.496C725.896 105.632 726.14 105.828 726.34 106.084C726.548 106.332 726.652 106.644 726.652 107.02C726.652 107.452 726.52 107.824 726.256 108.136C726 108.448 725.644 108.688 725.188 108.856C724.74 109.016 724.228 109.096 723.652 109.096Z" fill="white"/>
<path d="M518.458 20.4577H671.542V44C671.542 54.7929 662.793 63.5423 652 63.5423H538C527.207 63.5423 518.458 54.7929 518.458 44V20.4577Z" fill="#0D6AE8" stroke="url(#paint6_linear_211_530)" stroke-width="0.915339"/>
<g filter="url(#filter1_b_211_530)">
<path d="M518.594 20.2562H672V43.9366C672 54.9823 663.046 63.9366 652 63.9366H538.594C527.549 63.9366 518.594 54.9823 518.594 43.9366V20.2562Z" fill="#1A2028" fill-opacity="0.01"/>
</g>
<mask id="mask0_211_530" style="mask-type:alpha" maskUnits="userSpaceOnUse" x="518" y="20" width="154" height="44">
<path d="M519.052 20.7138H671.542V43.9366C671.542 54.7295 662.793 63.479 652 63.479H538.594C527.801 63.479 519.052 54.7296 519.052 43.9366V20.7138Z" fill="#1A2028" stroke="url(#paint7_linear_211_530)" stroke-width="0.915339"/>
</mask>
<g mask="url(#mask0_211_530)">
<path d="M584.603 28.54L581.687 37H578.675L575.747 28.54H578.267L580.187 34.648L582.095 28.54H584.603ZM587.688 28.54V37H585.336V28.54H587.688ZM592.219 37.084C591.235 37.084 590.427 36.852 589.795 36.388C589.163 35.916 588.823 35.244 588.775 34.372H591.283C591.307 34.668 591.395 34.884 591.547 35.02C591.699 35.156 591.895 35.224 592.135 35.224C592.351 35.224 592.527 35.172 592.663 35.068C592.807 34.956 592.879 34.804 592.879 34.612C592.879 34.364 592.763 34.172 592.531 34.036C592.299 33.9 591.923 33.748 591.403 33.58C590.851 33.396 590.403 33.22 590.059 33.052C589.723 32.876 589.427 32.624 589.171 32.296C588.923 31.96 588.799 31.524 588.799 30.988C588.799 30.444 588.935 29.98 589.207 29.596C589.479 29.204 589.855 28.908 590.335 28.708C590.815 28.508 591.359 28.408 591.967 28.408C592.951 28.408 593.735 28.64 594.319 29.104C594.911 29.56 595.227 30.204 595.267 31.036H592.711C592.703 30.78 592.623 30.588 592.471 30.46C592.327 30.332 592.139 30.268 591.907 30.268C591.731 30.268 591.587 30.32 591.475 30.424C591.363 30.528 591.307 30.676 591.307 30.868C591.307 31.028 591.367 31.168 591.487 31.288C591.615 31.4 591.771 31.5 591.955 31.588C592.139 31.668 592.411 31.772 592.771 31.9C593.307 32.084 593.747 32.268 594.091 32.452C594.443 32.628 594.743 32.88 594.991 33.208C595.247 33.528 595.375 33.936 595.375 34.432C595.375 34.936 595.247 35.388 594.991 35.788C594.743 36.188 594.379 36.504 593.899 36.736C593.427 36.968 592.867 37.084 592.219 37.084ZM601.821 35.62H598.821L598.365 37H595.893L598.977 28.54H601.689L604.761 37H602.277L601.821 35.62ZM601.233 33.82L600.321 31.084L599.421 33.82H601.233ZM597.717 28C597.941 26.696 598.541 26.044 599.517 26.044C599.701 26.044 599.865 26.072 600.009 26.128C600.161 26.184 600.333 26.264 600.525 26.368C600.661 26.44 600.777 26.496 600.873 26.536C600.969 26.576 601.065 26.596 601.161 26.596C601.457 26.596 601.633 26.412 601.689 26.044H602.877C602.765 26.724 602.553 27.22 602.241 27.532C601.937 27.836 601.549 27.988 601.077 27.988C600.901 27.988 600.741 27.964 600.597 27.916C600.453 27.86 600.277 27.78 600.069 27.676C599.933 27.604 599.817 27.548 599.721 27.508C599.625 27.468 599.529 27.448 599.433 27.448C599.145 27.448 598.965 27.632 598.893 28H597.717ZM609.583 37.084C608.791 37.084 608.063 36.9 607.399 36.532C606.735 36.156 606.207 35.64 605.815 34.984C605.431 34.32 605.239 33.572 605.239 32.74C605.239 31.908 605.431 31.164 605.815 30.508C606.207 29.844 606.735 29.328 607.399 28.96C608.063 28.592 608.791 28.408 609.583 28.408C610.383 28.408 611.111 28.592 611.767 28.96C612.431 29.328 612.955 29.844 613.339 30.508C613.723 31.164 613.915 31.908 613.915 32.74C613.915 33.572 613.723 34.32 613.339 34.984C612.955 35.64 612.431 36.156 611.767 36.532C611.103 36.9 610.375 37.084 609.583 37.084ZM609.583 34.9C610.183 34.9 610.655 34.704 610.999 34.312C611.351 33.92 611.527 33.396 611.527 32.74C611.527 32.068 611.351 31.54 610.999 31.156C610.655 30.764 610.183 30.568 609.583 30.568C608.975 30.568 608.499 30.764 608.155 31.156C607.811 31.54 607.639 32.068 607.639 32.74C607.639 33.404 607.811 33.932 608.155 34.324C608.499 34.708 608.975 34.9 609.583 34.9ZM545.872 49.36C545.872 49.872 545.752 50.34 545.512 50.764C545.28 51.18 544.924 51.516 544.444 51.772C543.972 52.02 543.392 52.144 542.704 52.144H541.54V55H539.188V46.54H542.704C543.384 46.54 543.96 46.66 544.432 46.9C544.912 47.14 545.272 47.472 545.512 47.896C545.752 48.32 545.872 48.808 545.872 49.36ZM542.476 50.272C543.14 50.272 543.472 49.968 543.472 49.36C543.472 48.744 543.14 48.436 542.476 48.436H541.54V50.272H542.476ZM550.873 55.084C550.081 55.084 549.353 54.9 548.689 54.532C548.025 54.156 547.497 53.64 547.105 52.984C546.721 52.32 546.529 51.572 546.529 50.74C546.529 49.908 546.721 49.164 547.105 48.508C547.497 47.844 548.025 47.328 548.689 46.96C549.353 46.592 550.081 46.408 550.873 46.408C551.673 46.408 552.401 46.592 553.057 46.96C553.721 47.328 554.245 47.844 554.629 48.508C555.013 49.164 555.205 49.908 555.205 50.74C555.205 51.572 555.013 52.32 554.629 52.984C554.245 53.64 553.721 54.156 553.057 54.532C552.393 54.9 551.665 55.084 550.873 55.084ZM550.873 52.9C551.473 52.9 551.945 52.704 552.289 52.312C552.641 51.92 552.817 51.396 552.817 50.74C552.817 50.068 552.641 49.54 552.289 49.156C551.945 48.764 551.473 48.568 550.873 48.568C550.265 48.568 549.789 48.764 549.445 49.156C549.101 49.54 548.929 50.068 548.929 50.74C548.929 51.404 549.101 51.932 549.445 52.324C549.789 52.708 550.265 52.9 550.873 52.9ZM564.098 55H561.746L558.614 50.272V55H556.262V46.54H558.614L561.746 51.328V46.54H564.098V55ZM571.81 46.54V48.412H569.554V55H567.202V48.412H564.97V46.54H571.81ZM576.736 55.084C575.944 55.084 575.216 54.9 574.552 54.532C573.888 54.156 573.36 53.64 572.968 52.984C572.584 52.32 572.392 51.572 572.392 50.74C572.392 49.908 572.584 49.164 572.968 48.508C573.36 47.844 573.888 47.328 574.552 46.96C575.216 46.592 575.944 46.408 576.736 46.408C577.536 46.408 578.264 46.592 578.92 46.96C579.584 47.328 580.108 47.844 580.492 48.508C580.876 49.164 581.068 49.908 581.068 50.74C581.068 51.572 580.876 52.32 580.492 52.984C580.108 53.64 579.584 54.156 578.92 54.532C578.256 54.9 577.528 55.084 576.736 55.084ZM576.736 52.9C577.336 52.9 577.808 52.704 578.152 52.312C578.504 51.92 578.68 51.396 578.68 50.74C578.68 50.068 578.504 49.54 578.152 49.156C577.808 48.764 577.336 48.568 576.736 48.568C576.128 48.568 575.652 48.764 575.308 49.156C574.964 49.54 574.792 50.068 574.792 50.74C574.792 51.404 574.964 51.932 575.308 52.324C575.652 52.708 576.128 52.9 576.736 52.9ZM587.77 46.54C588.658 46.54 589.434 46.72 590.098 47.08C590.77 47.432 591.286 47.928 591.646 48.568C592.006 49.208 592.186 49.94 592.186 50.764C592.186 51.58 592.002 52.308 591.634 52.948C591.274 53.588 590.758 54.092 590.086 54.46C589.422 54.82 588.65 55 587.77 55H584.422V46.54H587.77ZM587.59 52.924C588.278 52.924 588.818 52.736 589.21 52.36C589.602 51.984 589.798 51.452 589.798 50.764C589.798 50.068 589.602 49.532 589.21 49.156C588.818 48.772 588.278 48.58 587.59 48.58H586.774V52.924H587.59ZM595.598 48.424V49.804H598.298V51.592H595.598V53.116H598.658V55H593.246V46.54H598.658V48.424H595.598ZM610.349 46.54L607.433 55H604.421L601.493 46.54H604.013L605.933 52.648L607.841 46.54H610.349ZM613.434 48.424V49.804H616.134V51.592H613.434V53.116H616.494V55H611.082V46.54H616.494V48.424H613.434ZM625.492 55H623.14L620.008 50.272V55H617.656V46.54H620.008L623.14 51.328V46.54H625.492V55ZM630.18 46.54C631.068 46.54 631.844 46.72 632.508 47.08C633.18 47.432 633.696 47.928 634.056 48.568C634.416 49.208 634.596 49.94 634.596 50.764C634.596 51.58 634.412 52.308 634.044 52.948C633.684 53.588 633.168 54.092 632.496 54.46C631.832 54.82 631.06 55 630.18 55H626.832V46.54H630.18ZM630 52.924C630.688 52.924 631.228 52.736 631.62 52.36C632.012 51.984 632.208 51.452 632.208 50.764C632.208 50.068 632.012 49.532 631.62 49.156C631.228 48.772 630.688 48.58 630 48.58H629.184V52.924H630ZM641.008 53.62H638.008L637.552 55H635.08L638.164 46.54H640.876L643.948 55H641.464L641.008 53.62ZM640.42 51.82L639.508 49.084L638.608 51.82H640.42ZM647.907 55.084C646.923 55.084 646.115 54.852 645.483 54.388C644.851 53.916 644.511 53.244 644.463 52.372H646.971C646.995 52.668 647.083 52.884 647.235 53.02C647.387 53.156 647.583 53.224 647.823 53.224C648.039 53.224 648.215 53.172 648.351 53.068C648.495 52.956 648.567 52.804 648.567 52.612C648.567 52.364 648.451 52.172 648.219 52.036C647.987 51.9 647.611 51.748 647.091 51.58C646.539 51.396 646.091 51.22 645.747 51.052C645.411 50.876 645.115 50.624 644.859 50.296C644.611 49.96 644.487 49.524 644.487 48.988C644.487 48.444 644.623 47.98 644.895 47.596C645.167 47.204 645.543 46.908 646.023 46.708C646.503 46.508 647.047 46.408 647.655 46.408C648.639 46.408 649.423 46.64 650.007 47.104C650.599 47.56 650.915 48.204 650.955 49.036H648.399C648.391 48.78 648.311 48.588 648.159 48.46C648.015 48.332 647.827 48.268 647.595 48.268C647.419 48.268 647.275 48.32 647.163 48.424C647.051 48.528 646.995 48.676 646.995 48.868C646.995 49.028 647.055 49.168 647.175 49.288C647.303 49.4 647.459 49.5 647.643 49.588C647.827 49.668 648.099 49.772 648.459 49.9C648.995 50.084 649.435 50.268 649.779 50.452C650.131 50.628 650.431 50.88 650.679 51.208C650.935 51.528 651.063 51.936 651.063 52.432C651.063 52.936 650.935 53.388 650.679 53.788C650.431 54.188 650.067 54.504 649.587 54.736C649.115 54.968 648.555 55.084 647.907 55.084Z" fill="white"/>
</g>
<path d="M352.458 20.4577H505.542V44C505.542 54.7929 496.793 63.5423 486 63.5423H372C361.207 63.5423 352.458 54.7929 352.458 44V20.4577Z" fill="#414955" stroke="url(#paint8_linear_211_530)" stroke-width="0.915339"/>
<g filter="url(#filter2_b_211_530)">
<path d="M352.594 20.2562H506V43.9366C506 54.9823 497.046 63.9366 486 63.9366H372.594C361.549 63.9366 352.594 54.9823 352.594 43.9366V20.2562Z" fill="#1A2028" fill-opacity="0.01"/>
</g>
<mask id="mask1_211_530" style="mask-type:alpha" maskUnits="userSpaceOnUse" x="352" y="20" width="154" height="44">
<path d="M353.052 20.7138H505.542V43.9366C505.542 54.7295 496.793 63.479 486 63.479H372.594C361.802 63.479 353.052 54.7296 353.052 43.9366V20.7138Z" fill="#1A2028" stroke="url(#paint9_linear_211_530)" stroke-width="0.915339"/>
</mask>
<g mask="url(#mask1_211_530)">
<path d="M418.603 28.54L415.687 37H412.675L409.747 28.54H412.267L414.187 34.648L416.095 28.54H418.603ZM421.688 28.54V37H419.336V28.54H421.688ZM426.219 37.084C425.235 37.084 424.427 36.852 423.795 36.388C423.163 35.916 422.823 35.244 422.775 34.372H425.283C425.307 34.668 425.395 34.884 425.547 35.02C425.699 35.156 425.895 35.224 426.135 35.224C426.351 35.224 426.527 35.172 426.663 35.068C426.807 34.956 426.879 34.804 426.879 34.612C426.879 34.364 426.763 34.172 426.531 34.036C426.299 33.9 425.923 33.748 425.403 33.58C424.851 33.396 424.403 33.22 424.059 33.052C423.723 32.876 423.427 32.624 423.171 32.296C422.923 31.96 422.799 31.524 422.799 30.988C422.799 30.444 422.935 29.98 423.207 29.596C423.479 29.204 423.855 28.908 424.335 28.708C424.815 28.508 425.359 28.408 425.967 28.408C426.951 28.408 427.735 28.64 428.319 29.104C428.911 29.56 429.227 30.204 429.267 31.036H426.711C426.703 30.78 426.623 30.588 426.471 30.46C426.327 30.332 426.139 30.268 425.907 30.268C425.731 30.268 425.587 30.32 425.475 30.424C425.363 30.528 425.307 30.676 425.307 30.868C425.307 31.028 425.367 31.168 425.487 31.288C425.615 31.4 425.771 31.5 425.955 31.588C426.139 31.668 426.411 31.772 426.771 31.9C427.307 32.084 427.747 32.268 428.091 32.452C428.443 32.628 428.743 32.88 428.991 33.208C429.247 33.528 429.375 33.936 429.375 34.432C429.375 34.936 429.247 35.388 428.991 35.788C428.743 36.188 428.379 36.504 427.899 36.736C427.427 36.968 426.867 37.084 426.219 37.084ZM435.821 35.62H432.821L432.365 37H429.893L432.977 28.54H435.689L438.761 37H436.277L435.821 35.62ZM435.233 33.82L434.321 31.084L433.421 33.82H435.233ZM431.717 28C431.941 26.696 432.541 26.044 433.517 26.044C433.701 26.044 433.865 26.072 434.009 26.128C434.161 26.184 434.333 26.264 434.525 26.368C434.661 26.44 434.777 26.496 434.873 26.536C434.969 26.576 435.065 26.596 435.161 26.596C435.457 26.596 435.633 26.412 435.689 26.044H436.877C436.765 26.724 436.553 27.22 436.241 27.532C435.937 27.836 435.549 27.988 435.077 27.988C434.901 27.988 434.741 27.964 434.597 27.916C434.453 27.86 434.277 27.78 434.069 27.676C433.933 27.604 433.817 27.548 433.721 27.508C433.625 27.468 433.529 27.448 433.433 27.448C433.145 27.448 432.965 27.632 432.893 28H431.717ZM443.583 37.084C442.791 37.084 442.063 36.9 441.399 36.532C440.735 36.156 440.207 35.64 439.815 34.984C439.431 34.32 439.239 33.572 439.239 32.74C439.239 31.908 439.431 31.164 439.815 30.508C440.207 29.844 440.735 29.328 441.399 28.96C442.063 28.592 442.791 28.408 443.583 28.408C444.383 28.408 445.111 28.592 445.767 28.96C446.431 29.328 446.955 29.844 447.339 30.508C447.723 31.164 447.915 31.908 447.915 32.74C447.915 33.572 447.723 34.32 447.339 34.984C446.955 35.64 446.431 36.156 445.767 36.532C445.103 36.9 444.375 37.084 443.583 37.084ZM443.583 34.9C444.183 34.9 444.655 34.704 444.999 34.312C445.351 33.92 445.527 33.396 445.527 32.74C445.527 32.068 445.351 31.54 444.999 31.156C444.655 30.764 444.183 30.568 443.583 30.568C442.975 30.568 442.499 30.764 442.155 31.156C441.811 31.54 441.639 32.068 441.639 32.74C441.639 33.404 441.811 33.932 442.155 34.324C442.499 34.708 442.975 34.9 443.583 34.9ZM389.06 50.752C389.06 49.92 389.232 49.18 389.576 48.532C389.928 47.876 390.424 47.368 391.064 47.008C391.704 46.64 392.44 46.456 393.272 46.456C394.328 46.456 395.216 46.74 395.936 47.308C396.656 47.868 397.12 48.632 397.328 49.6H394.796C394.644 49.28 394.432 49.036 394.16 48.868C393.896 48.7 393.588 48.616 393.236 48.616C392.692 48.616 392.256 48.812 391.928 49.204C391.608 49.588 391.448 50.104 391.448 50.752C391.448 51.408 391.608 51.932 391.928 52.324C392.256 52.708 392.692 52.9 393.236 52.9C393.588 52.9 393.896 52.816 394.16 52.648C394.432 52.48 394.644 52.236 394.796 51.916H397.328C397.12 52.884 396.656 53.652 395.936 54.22C395.216 54.78 394.328 55.06 393.272 55.06C392.44 55.06 391.704 54.88 391.064 54.52C390.424 54.152 389.928 53.644 389.576 52.996C389.232 52.34 389.06 51.592 389.06 50.752ZM403.794 53.62H400.794L400.338 55H397.866L400.95 46.54H403.662L406.734 55H404.25L403.794 53.62ZM403.206 51.82L402.294 49.084L401.394 51.82H403.206ZM417.376 46.54V55H415.024V50.332L413.428 55H411.46L409.852 50.296V55H407.5V46.54H410.344L412.468 52.036L414.544 46.54H417.376ZM425.399 49.36C425.399 49.872 425.279 50.34 425.039 50.764C424.807 51.18 424.451 51.516 423.971 51.772C423.499 52.02 422.919 52.144 422.231 52.144H421.067V55H418.715V46.54H422.231C422.911 46.54 423.487 46.66 423.959 46.9C424.439 47.14 424.799 47.472 425.039 47.896C425.279 48.32 425.399 48.808 425.399 49.36ZM422.003 50.272C422.667 50.272 422.999 49.968 422.999 49.36C422.999 48.744 422.667 48.436 422.003 48.436H421.067V50.272H422.003ZM431.696 53.62H428.696L428.24 55H425.768L428.852 46.54H431.564L434.636 55H432.152L431.696 53.62ZM431.108 51.82L430.196 49.084L429.296 51.82H431.108ZM443.238 55H440.886L437.754 50.272V55H435.402V46.54H437.754L440.886 51.328V46.54H443.238V55ZM452.15 46.54V55H449.798V51.604H446.93V55H444.578V46.54H446.93V49.72H449.798V46.54H452.15ZM458.848 53.62H455.848L455.392 55H452.92L456.004 46.54H458.716L461.788 55H459.304L458.848 53.62ZM458.26 51.82L457.348 49.084L456.448 51.82H458.26ZM465.747 55.084C464.763 55.084 463.955 54.852 463.323 54.388C462.691 53.916 462.351 53.244 462.303 52.372H464.811C464.835 52.668 464.923 52.884 465.075 53.02C465.227 53.156 465.423 53.224 465.663 53.224C465.879 53.224 466.055 53.172 466.191 53.068C466.335 52.956 466.407 52.804 466.407 52.612C466.407 52.364 466.291 52.172 466.059 52.036C465.827 51.9 465.451 51.748 464.931 51.58C464.379 51.396 463.931 51.22 463.587 51.052C463.251 50.876 462.955 50.624 462.699 50.296C462.451 49.96 462.327 49.524 462.327 48.988C462.327 48.444 462.463 47.98 462.735 47.596C463.007 47.204 463.383 46.908 463.863 46.708C464.343 46.508 464.887 46.408 465.495 46.408C466.479 46.408 467.263 46.64 467.847 47.104C468.439 47.56 468.755 48.204 468.795 49.036H466.239C466.231 48.78 466.151 48.588 465.999 48.46C465.855 48.332 465.667 48.268 465.435 48.268C465.259 48.268 465.115 48.32 465.003 48.424C464.891 48.528 464.835 48.676 464.835 48.868C464.835 49.028 464.895 49.168 465.015 49.288C465.143 49.4 465.299 49.5 465.483 49.588C465.667 49.668 465.939 49.772 466.299 49.9C466.835 50.084 467.275 50.268 467.619 50.452C467.971 50.628 468.271 50.88 468.519 51.208C468.775 51.528 468.903 51.936 468.903 52.432C468.903 52.936 468.775 53.388 468.519 53.788C468.271 54.188 467.907 54.504 467.427 54.736C466.955 54.968 466.395 55.084 465.747 55.084Z" fill="white"/>
</g>
<path d="M186.458 20.4577H339.542V44C339.542 54.7929 330.793 63.5423 320 63.5423H206C195.207 63.5423 186.458 54.7929 186.458 44V20.4577Z" fill="#414955" stroke="url(#paint10_linear_211_530)" stroke-width="0.915339"/>
<g filter="url(#filter3_b_211_530)">
<path d="M186.594 20.2562H340V43.9366C340 54.9823 331.046 63.9366 320 63.9366H206.594C195.549 63.9366 186.594 54.9823 186.594 43.9366V20.2562Z" fill="#1A2028" fill-opacity="0.01"/>
</g>
<mask id="mask2_211_530" style="mask-type:alpha" maskUnits="userSpaceOnUse" x="186" y="20" width="154" height="44">
<path d="M187.052 20.7138H339.542V43.9366C339.542 54.7295 330.793 63.479 320 63.479H206.594C195.802 63.479 187.052 54.7296 187.052 43.9366V20.7138Z" fill="#1A2028" stroke="url(#paint11_linear_211_530)" stroke-width="0.915339"/>
</mask>
<g mask="url(#mask2_211_530)">
<path d="M252.603 28.54L249.687 37H246.675L243.747 28.54H246.267L248.187 34.648L250.095 28.54H252.603ZM255.688 28.54V37H253.336V28.54H255.688ZM260.219 37.084C259.235 37.084 258.427 36.852 257.795 36.388C257.163 35.916 256.823 35.244 256.775 34.372H259.283C259.307 34.668 259.395 34.884 259.547 35.02C259.699 35.156 259.895 35.224 260.135 35.224C260.351 35.224 260.527 35.172 260.663 35.068C260.807 34.956 260.879 34.804 260.879 34.612C260.879 34.364 260.763 34.172 260.531 34.036C260.299 33.9 259.923 33.748 259.403 33.58C258.851 33.396 258.403 33.22 258.059 33.052C257.723 32.876 257.427 32.624 257.171 32.296C256.923 31.96 256.799 31.524 256.799 30.988C256.799 30.444 256.935 29.98 257.207 29.596C257.479 29.204 257.855 28.908 258.335 28.708C258.815 28.508 259.359 28.408 259.967 28.408C260.951 28.408 261.735 28.64 262.319 29.104C262.911 29.56 263.227 30.204 263.267 31.036H260.711C260.703 30.78 260.623 30.588 260.471 30.46C260.327 30.332 260.139 30.268 259.907 30.268C259.731 30.268 259.587 30.32 259.475 30.424C259.363 30.528 259.307 30.676 259.307 30.868C259.307 31.028 259.367 31.168 259.487 31.288C259.615 31.4 259.771 31.5 259.955 31.588C260.139 31.668 260.411 31.772 260.771 31.9C261.307 32.084 261.747 32.268 262.091 32.452C262.443 32.628 262.743 32.88 262.991 33.208C263.247 33.528 263.375 33.936 263.375 34.432C263.375 34.936 263.247 35.388 262.991 35.788C262.743 36.188 262.379 36.504 261.899 36.736C261.427 36.968 260.867 37.084 260.219 37.084ZM269.821 35.62H266.821L266.365 37H263.893L266.977 28.54H269.689L272.761 37H270.277L269.821 35.62ZM269.233 33.82L268.321 31.084L267.421 33.82H269.233ZM265.717 28C265.941 26.696 266.541 26.044 267.517 26.044C267.701 26.044 267.865 26.072 268.009 26.128C268.161 26.184 268.333 26.264 268.525 26.368C268.661 26.44 268.777 26.496 268.873 26.536C268.969 26.576 269.065 26.596 269.161 26.596C269.457 26.596 269.633 26.412 269.689 26.044H270.877C270.765 26.724 270.553 27.22 270.241 27.532C269.937 27.836 269.549 27.988 269.077 27.988C268.901 27.988 268.741 27.964 268.597 27.916C268.453 27.86 268.277 27.78 268.069 27.676C267.933 27.604 267.817 27.548 267.721 27.508C267.625 27.468 267.529 27.448 267.433 27.448C267.145 27.448 266.965 27.632 266.893 28H265.717ZM277.583 37.084C276.791 37.084 276.063 36.9 275.399 36.532C274.735 36.156 274.207 35.64 273.815 34.984C273.431 34.32 273.239 33.572 273.239 32.74C273.239 31.908 273.431 31.164 273.815 30.508C274.207 29.844 274.735 29.328 275.399 28.96C276.063 28.592 276.791 28.408 277.583 28.408C278.383 28.408 279.111 28.592 279.767 28.96C280.431 29.328 280.955 29.844 281.339 30.508C281.723 31.164 281.915 31.908 281.915 32.74C281.915 33.572 281.723 34.32 281.339 34.984C280.955 35.64 280.431 36.156 279.767 36.532C279.103 36.9 278.375 37.084 277.583 37.084ZM277.583 34.9C278.183 34.9 278.655 34.704 278.999 34.312C279.351 33.92 279.527 33.396 279.527 32.74C279.527 32.068 279.351 31.54 278.999 31.156C278.655 30.764 278.183 30.568 277.583 30.568C276.975 30.568 276.499 30.764 276.155 31.156C275.811 31.54 275.639 32.068 275.639 32.74C275.639 33.404 275.811 33.932 276.155 34.324C276.499 34.708 276.975 34.9 277.583 34.9ZM206.027 50.752C206.027 49.92 206.199 49.18 206.543 48.532C206.895 47.876 207.391 47.368 208.031 47.008C208.671 46.64 209.407 46.456 210.239 46.456C211.295 46.456 212.183 46.74 212.903 47.308C213.623 47.868 214.087 48.632 214.295 49.6H211.763C211.611 49.28 211.399 49.036 211.127 48.868C210.863 48.7 210.555 48.616 210.203 48.616C209.659 48.616 209.223 48.812 208.895 49.204C208.575 49.588 208.415 50.104 208.415 50.752C208.415 51.408 208.575 51.932 208.895 52.324C209.223 52.708 209.659 52.9 210.203 52.9C210.555 52.9 210.863 52.816 211.127 52.648C211.399 52.48 211.611 52.236 211.763 51.916H214.295C214.087 52.884 213.623 53.652 212.903 54.22C212.183 54.78 211.295 55.06 210.239 55.06C209.407 55.06 208.671 54.88 208.031 54.52C207.391 54.152 206.895 53.644 206.543 52.996C206.199 52.34 206.027 51.592 206.027 50.752ZM219.464 55.084C218.672 55.084 217.944 54.9 217.28 54.532C216.616 54.156 216.088 53.64 215.696 52.984C215.312 52.32 215.12 51.572 215.12 50.74C215.12 49.908 215.312 49.164 215.696 48.508C216.088 47.844 216.616 47.328 217.28 46.96C217.944 46.592 218.672 46.408 219.464 46.408C220.264 46.408 220.992 46.592 221.648 46.96C222.312 47.328 222.836 47.844 223.22 48.508C223.604 49.164 223.796 49.908 223.796 50.74C223.796 51.572 223.604 52.32 223.22 52.984C222.836 53.64 222.312 54.156 221.648 54.532C220.984 54.9 220.256 55.084 219.464 55.084ZM219.464 52.9C220.064 52.9 220.536 52.704 220.88 52.312C221.232 51.92 221.408 51.396 221.408 50.74C221.408 50.068 221.232 49.54 220.88 49.156C220.536 48.764 220.064 48.568 219.464 48.568C218.856 48.568 218.38 48.764 218.036 49.156C217.692 49.54 217.52 50.068 217.52 50.74C217.52 51.404 217.692 51.932 218.036 52.324C218.38 52.708 218.856 52.9 219.464 52.9ZM234.73 46.54V55H232.378V50.332L230.782 55H228.814L227.206 50.296V55H224.854V46.54H227.698L229.822 52.036L231.898 46.54H234.73ZM242.752 49.36C242.752 49.872 242.632 50.34 242.392 50.764C242.16 51.18 241.804 51.516 241.324 51.772C240.852 52.02 240.272 52.144 239.584 52.144H238.42V55H236.068V46.54H239.584C240.264 46.54 240.84 46.66 241.312 46.9C241.792 47.14 242.152 47.472 242.392 47.896C242.632 48.32 242.752 48.808 242.752 49.36ZM239.356 50.272C240.02 50.272 240.352 49.968 240.352 49.36C240.352 48.744 240.02 48.436 239.356 48.436H238.42V50.272H239.356ZM247.753 55.084C246.961 55.084 246.233 54.9 245.569 54.532C244.905 54.156 244.377 53.64 243.985 52.984C243.601 52.32 243.409 51.572 243.409 50.74C243.409 49.908 243.601 49.164 243.985 48.508C244.377 47.844 244.905 47.328 245.569 46.96C246.233 46.592 246.961 46.408 247.753 46.408C248.553 46.408 249.281 46.592 249.937 46.96C250.601 47.328 251.125 47.844 251.509 48.508C251.893 49.164 252.085 49.908 252.085 50.74C252.085 51.572 251.893 52.32 251.509 52.984C251.125 53.64 250.601 54.156 249.937 54.532C249.273 54.9 248.545 55.084 247.753 55.084ZM247.753 52.9C248.353 52.9 248.825 52.704 249.169 52.312C249.521 51.92 249.697 51.396 249.697 50.74C249.697 50.068 249.521 49.54 249.169 49.156C248.825 48.764 248.353 48.568 247.753 48.568C247.145 48.568 246.669 48.764 246.325 49.156C245.981 49.54 245.809 50.068 245.809 50.74C245.809 51.404 245.981 51.932 246.325 52.324C246.669 52.708 247.145 52.9 247.753 52.9ZM257.427 55L255.747 51.88H255.495V55H253.143V46.54H256.851C257.531 46.54 258.107 46.66 258.579 46.9C259.051 47.132 259.407 47.456 259.647 47.872C259.887 48.28 260.007 48.74 260.007 49.252C260.007 49.828 259.847 50.336 259.527 50.776C259.215 51.208 258.755 51.516 258.147 51.7L260.055 55H257.427ZM255.495 50.272H256.659C256.979 50.272 257.219 50.196 257.379 50.044C257.539 49.892 257.619 49.672 257.619 49.384C257.619 49.112 257.535 48.9 257.367 48.748C257.207 48.588 256.971 48.508 256.659 48.508H255.495V50.272ZM267.448 46.54V48.412H265.192V55H262.84V48.412H260.608V46.54H267.448ZM273.67 53.62H270.67L270.214 55H267.742L270.826 46.54H273.538L276.61 55H274.126L273.67 53.62ZM273.082 51.82L272.17 49.084L271.27 51.82H273.082ZM287.253 46.54V55H284.901V50.332L283.305 55H281.337L279.729 50.296V55H277.377V46.54H280.221L282.345 52.036L284.421 46.54H287.253ZM290.944 48.424V49.804H293.644V51.592H290.944V53.116H294.004V55H288.592V46.54H294.004V48.424H290.944ZM303.002 55H300.65L297.518 50.272V55H295.166V46.54H297.518L300.65 51.328V46.54H303.002V55ZM310.714 46.54V48.412H308.458V55H306.106V48.412H303.874V46.54H310.714ZM315.64 55.084C314.848 55.084 314.12 54.9 313.456 54.532C312.792 54.156 312.264 53.64 311.872 52.984C311.488 52.32 311.296 51.572 311.296 50.74C311.296 49.908 311.488 49.164 311.872 48.508C312.264 47.844 312.792 47.328 313.456 46.96C314.12 46.592 314.848 46.408 315.64 46.408C316.44 46.408 317.168 46.592 317.824 46.96C318.488 47.328 319.012 47.844 319.396 48.508C319.78 49.164 319.972 49.908 319.972 50.74C319.972 51.572 319.78 52.32 319.396 52.984C319.012 53.64 318.488 54.156 317.824 54.532C317.16 54.9 316.432 55.084 315.64 55.084ZM315.64 52.9C316.24 52.9 316.712 52.704 317.056 52.312C317.408 51.92 317.584 51.396 317.584 50.74C317.584 50.068 317.408 49.54 317.056 49.156C316.712 48.764 316.24 48.568 315.64 48.568C315.032 48.568 314.556 48.764 314.212 49.156C313.868 49.54 313.696 50.068 313.696 50.74C313.696 51.404 313.868 51.932 314.212 52.324C314.556 52.708 315.032 52.9 315.64 52.9Z" fill="white"/>
</g>
<path d="M20.4577 20.4577H173.542V44C173.542 54.7929 164.793 63.5423 154 63.5423H40C29.2071 63.5423 20.4577 54.7929 20.4577 44V20.4577Z" fill="#414955" stroke="url(#paint12_linear_211_530)" stroke-width="0.915339"/>
<g filter="url(#filter4_b_211_530)">
<path d="M20.5945 20.2562H174V43.9366C174 54.9823 165.046 63.9366 154 63.9366H40.5944C29.5488 63.9366 20.5945 54.9823 20.5945 43.9366V20.2562Z" fill="#1A2028" fill-opacity="0.01"/>
</g>
<mask id="mask3_211_530" style="mask-type:alpha" maskUnits="userSpaceOnUse" x="20" y="20" width="154" height="44">
<path d="M21.0522 20.7138H173.542V43.9366C173.542 54.7295 164.793 63.479 154 63.479H40.5944C29.8015 63.479 21.0522 54.7296 21.0522 43.9366V20.7138Z" fill="#1A2028" stroke="url(#paint13_linear_211_530)" stroke-width="0.915339"/>
</mask>
<g mask="url(#mask3_211_530)">
<path d="M86.6032 28.54L83.6872 37H80.6752L77.7472 28.54H80.2672L82.1872 34.648L84.0952 28.54H86.6032ZM89.6881 28.54V37H87.3361V28.54H89.6881ZM94.2195 37.084C93.2355 37.084 92.4275 36.852 91.7955 36.388C91.1635 35.916 90.8235 35.244 90.7755 34.372H93.2835C93.3075 34.668 93.3955 34.884 93.5475 35.02C93.6995 35.156 93.8955 35.224 94.1355 35.224C94.3515 35.224 94.5275 35.172 94.6635 35.068C94.8075 34.956 94.8795 34.804 94.8795 34.612C94.8795 34.364 94.7635 34.172 94.5315 34.036C94.2995 33.9 93.9235 33.748 93.4035 33.58C92.8515 33.396 92.4035 33.22 92.0595 33.052C91.7235 32.876 91.4275 32.624 91.1715 32.296C90.9235 31.96 90.7995 31.524 90.7995 30.988C90.7995 30.444 90.9355 29.98 91.2075 29.596C91.4795 29.204 91.8555 28.908 92.3355 28.708C92.8155 28.508 93.3595 28.408 93.9675 28.408C94.9515 28.408 95.7355 28.64 96.3195 29.104C96.9115 29.56 97.2275 30.204 97.2675 31.036H94.7115C94.7035 30.78 94.6235 30.588 94.4715 30.46C94.3275 30.332 94.1395 30.268 93.9075 30.268C93.7315 30.268 93.5875 30.32 93.4755 30.424C93.3635 30.528 93.3075 30.676 93.3075 30.868C93.3075 31.028 93.3675 31.168 93.4875 31.288C93.6155 31.4 93.7715 31.5 93.9555 31.588C94.1395 31.668 94.4115 31.772 94.7715 31.9C95.3075 32.084 95.7475 32.268 96.0915 32.452C96.4435 32.628 96.7435 32.88 96.9915 33.208C97.2475 33.528 97.3755 33.936 97.3755 34.432C97.3755 34.936 97.2475 35.388 96.9915 35.788C96.7435 36.188 96.3795 36.504 95.8995 36.736C95.4275 36.968 94.8675 37.084 94.2195 37.084ZM103.821 35.62H100.821L100.365 37H97.8929L100.977 28.54H103.689L106.761 37H104.277L103.821 35.62ZM103.233 33.82L102.321 31.084L101.421 33.82H103.233ZM99.7169 28C99.9409 26.696 100.541 26.044 101.517 26.044C101.701 26.044 101.865 26.072 102.009 26.128C102.161 26.184 102.333 26.264 102.525 26.368C102.661 26.44 102.777 26.496 102.873 26.536C102.969 26.576 103.065 26.596 103.161 26.596C103.457 26.596 103.633 26.412 103.689 26.044H104.877C104.765 26.724 104.553 27.22 104.241 27.532C103.937 27.836 103.549 27.988 103.077 27.988C102.901 27.988 102.741 27.964 102.597 27.916C102.453 27.86 102.277 27.78 102.069 27.676C101.933 27.604 101.817 27.548 101.721 27.508C101.625 27.468 101.529 27.448 101.433 27.448C101.145 27.448 100.965 27.632 100.893 28H99.7169ZM111.583 37.084C110.791 37.084 110.063 36.9 109.399 36.532C108.735 36.156 108.207 35.64 107.815 34.984C107.431 34.32 107.239 33.572 107.239 32.74C107.239 31.908 107.431 31.164 107.815 30.508C108.207 29.844 108.735 29.328 109.399 28.96C110.063 28.592 110.791 28.408 111.583 28.408C112.383 28.408 113.111 28.592 113.767 28.96C114.431 29.328 114.955 29.844 115.339 30.508C115.723 31.164 115.915 31.908 115.915 32.74C115.915 33.572 115.723 34.32 115.339 34.984C114.955 35.64 114.431 36.156 113.767 36.532C113.103 36.9 112.375 37.084 111.583 37.084ZM111.583 34.9C112.183 34.9 112.655 34.704 112.999 34.312C113.351 33.92 113.527 33.396 113.527 32.74C113.527 32.068 113.351 31.54 112.999 31.156C112.655 30.764 112.183 30.568 111.583 30.568C110.975 30.568 110.499 30.764 110.155 31.156C109.811 31.54 109.639 32.068 109.639 32.74C109.639 33.404 109.811 33.932 110.155 34.324C110.499 34.708 110.975 34.9 111.583 34.9ZM36.0774 50.752C36.0774 49.92 36.2494 49.18 36.5934 48.532C36.9454 47.876 37.4414 47.368 38.0814 47.008C38.7214 46.64 39.4574 46.456 40.2894 46.456C41.3454 46.456 42.2334 46.74 42.9534 47.308C43.6734 47.868 44.1374 48.632 44.3454 49.6H41.8134C41.6614 49.28 41.4494 49.036 41.1774 48.868C40.9134 48.7 40.6054 48.616 40.2534 48.616C39.7094 48.616 39.2734 48.812 38.9454 49.204C38.6254 49.588 38.4654 50.104 38.4654 50.752C38.4654 51.408 38.6254 51.932 38.9454 52.324C39.2734 52.708 39.7094 52.9 40.2534 52.9C40.6054 52.9 40.9134 52.816 41.1774 52.648C41.4494 52.48 41.6614 52.236 41.8134 51.916H44.3454C44.1374 52.884 43.6734 53.652 42.9534 54.22C42.2334 54.78 41.3454 55.06 40.2894 55.06C39.4574 55.06 38.7214 54.88 38.0814 54.52C37.4414 54.152 36.9454 53.644 36.5934 52.996C36.2494 52.34 36.0774 51.592 36.0774 50.752ZM47.8111 53.2H50.4391V55H45.4591V46.54H47.8111V53.2ZM53.7056 46.54V55H51.3536V46.54H53.7056ZM57.397 48.424V49.804H60.097V51.592H57.397V53.116H60.457V55H55.045V46.54H60.457V48.424H57.397ZM69.4553 55H67.1033L63.9713 50.272V55H61.6193V46.54H63.9713L67.1033 51.328V46.54H69.4553V55ZM77.167 46.54V48.412H74.911V55H72.559V48.412H70.327V46.54H77.167ZM80.3892 48.424V49.804H83.0892V51.592H80.3892V53.116H83.4492V55H78.0372V46.54H83.4492V48.424H80.3892ZM87.8035 55.084C86.8195 55.084 86.0115 54.852 85.3795 54.388C84.7475 53.916 84.4075 53.244 84.3595 52.372H86.8675C86.8915 52.668 86.9795 52.884 87.1315 53.02C87.2835 53.156 87.4795 53.224 87.7195 53.224C87.9355 53.224 88.1115 53.172 88.2475 53.068C88.3915 52.956 88.4635 52.804 88.4635 52.612C88.4635 52.364 88.3475 52.172 88.1155 52.036C87.8835 51.9 87.5075 51.748 86.9875 51.58C86.4355 51.396 85.9875 51.22 85.6435 51.052C85.3075 50.876 85.0115 50.624 84.7555 50.296C84.5075 49.96 84.3835 49.524 84.3835 48.988C84.3835 48.444 84.5195 47.98 84.7915 47.596C85.0635 47.204 85.4395 46.908 85.9195 46.708C86.3995 46.508 86.9435 46.408 87.5515 46.408C88.5355 46.408 89.3195 46.64 89.9035 47.104C90.4955 47.56 90.8115 48.204 90.8515 49.036H88.2955C88.2875 48.78 88.2075 48.588 88.0555 48.46C87.9115 48.332 87.7235 48.268 87.4915 48.268C87.3155 48.268 87.1715 48.32 87.0595 48.424C86.9475 48.528 86.8915 48.676 86.8915 48.868C86.8915 49.028 86.9515 49.168 87.0715 49.288C87.1995 49.4 87.3555 49.5 87.5395 49.588C87.7235 49.668 87.9955 49.772 88.3555 49.9C88.8915 50.084 89.3315 50.268 89.6755 50.452C90.0275 50.628 90.3275 50.88 90.5755 51.208C90.8315 51.528 90.9595 51.936 90.9595 52.432C90.9595 52.936 90.8315 53.388 90.5755 53.788C90.3275 54.188 89.9635 54.504 89.4835 54.736C89.0115 54.968 88.4515 55.084 87.8035 55.084ZM96.6969 43.576L93.4929 57.316H91.2249L94.4289 43.576H96.6969ZM96.8742 50.752C96.8742 49.92 97.0462 49.18 97.3902 48.532C97.7422 47.876 98.2382 47.368 98.8782 47.008C99.5182 46.64 100.254 46.456 101.086 46.456C102.142 46.456 103.03 46.74 103.75 47.308C104.47 47.868 104.934 48.632 105.142 49.6H102.61C102.458 49.28 102.246 49.036 101.974 48.868C101.71 48.7 101.402 48.616 101.05 48.616C100.506 48.616 100.07 48.812 99.7422 49.204C99.4222 49.588 99.2622 50.104 99.2622 50.752C99.2622 51.408 99.4222 51.932 99.7422 52.324C100.07 52.708 100.506 52.9 101.05 52.9C101.402 52.9 101.71 52.816 101.974 52.648C102.246 52.48 102.458 52.236 102.61 51.916H105.142C104.934 52.884 104.47 53.652 103.75 54.22C103.03 54.78 102.142 55.06 101.086 55.06C100.254 55.06 99.5182 54.88 98.8782 54.52C98.2382 54.152 97.7422 53.644 97.3902 52.996C97.0462 52.34 96.8742 51.592 96.8742 50.752ZM110.312 55.084C109.52 55.084 108.792 54.9 108.128 54.532C107.464 54.156 106.936 53.64 106.544 52.984C106.16 52.32 105.968 51.572 105.968 50.74C105.968 49.908 106.16 49.164 106.544 48.508C106.936 47.844 107.464 47.328 108.128 46.96C108.792 46.592 109.52 46.408 110.312 46.408C111.112 46.408 111.84 46.592 112.496 46.96C113.16 47.328 113.684 47.844 114.068 48.508C114.452 49.164 114.644 49.908 114.644 50.74C114.644 51.572 114.452 52.32 114.068 52.984C113.684 53.64 113.16 54.156 112.496 54.532C111.832 54.9 111.104 55.084 110.312 55.084ZM110.312 52.9C110.912 52.9 111.384 52.704 111.728 52.312C112.08 51.92 112.256 51.396 112.256 50.74C112.256 50.068 112.08 49.54 111.728 49.156C111.384 48.764 110.912 48.568 110.312 48.568C109.704 48.568 109.228 48.764 108.884 49.156C108.54 49.54 108.368 50.068 108.368 50.74C108.368 51.404 108.54 51.932 108.884 52.324C109.228 52.708 109.704 52.9 110.312 52.9ZM125.577 46.54V55H123.225V50.332L121.629 55H119.661L118.053 50.296V55H115.701V46.54H118.545L120.669 52.036L122.745 46.54H125.577ZM133.6 49.36C133.6 49.872 133.48 50.34 133.24 50.764C133.008 51.18 132.652 51.516 132.172 51.772C131.7 52.02 131.12 52.144 130.432 52.144H129.268V55H126.916V46.54H130.432C131.112 46.54 131.688 46.66 132.16 46.9C132.64 47.14 133 47.472 133.24 47.896C133.48 48.32 133.6 48.808 133.6 49.36ZM130.204 50.272C130.868 50.272 131.2 49.968 131.2 49.36C131.2 48.744 130.868 48.436 130.204 48.436H129.268V50.272H130.204ZM138.829 55L137.149 51.88H136.897V55H134.545V46.54H138.253C138.933 46.54 139.509 46.66 139.981 46.9C140.453 47.132 140.809 47.456 141.049 47.872C141.289 48.28 141.409 48.74 141.409 49.252C141.409 49.828 141.249 50.336 140.929 50.776C140.617 51.208 140.157 51.516 139.549 51.7L141.457 55H138.829ZM136.897 50.272H138.061C138.381 50.272 138.621 50.196 138.781 50.044C138.941 49.892 139.021 49.672 139.021 49.384C139.021 49.112 138.937 48.9 138.769 48.748C138.609 48.588 138.373 48.508 138.061 48.508H136.897V50.272ZM147.831 53.62H144.831L144.375 55H141.903L144.987 46.54H147.699L150.771 55H148.287L147.831 53.62ZM147.243 51.82L146.331 49.084L145.431 51.82H147.243ZM154.729 55.084C153.745 55.084 152.937 54.852 152.305 54.388C151.673 53.916 151.333 53.244 151.285 52.372H153.793C153.817 52.668 153.905 52.884 154.057 53.02C154.209 53.156 154.405 53.224 154.645 53.224C154.861 53.224 155.037 53.172 155.173 53.068C155.317 52.956 155.389 52.804 155.389 52.612C155.389 52.364 155.273 52.172 155.041 52.036C154.809 51.9 154.433 51.748 153.913 51.58C153.361 51.396 152.913 51.22 152.569 51.052C152.233 50.876 151.937 50.624 151.681 50.296C151.433 49.96 151.309 49.524 151.309 48.988C151.309 48.444 151.445 47.98 151.717 47.596C151.989 47.204 152.365 46.908 152.845 46.708C153.325 46.508 153.869 46.408 154.477 46.408C155.461 46.408 156.245 46.64 156.829 47.104C157.421 47.56 157.737 48.204 157.777 49.036H155.221C155.213 48.78 155.133 48.588 154.981 48.46C154.837 48.332 154.649 48.268 154.417 48.268C154.241 48.268 154.097 48.32 153.985 48.424C153.873 48.528 153.817 48.676 153.817 48.868C153.817 49.028 153.877 49.168 153.997 49.288C154.125 49.4 154.281 49.5 154.465 49.588C154.649 49.668 154.921 49.772 155.281 49.9C155.817 50.084 156.257 50.268 156.601 50.452C156.953 50.628 157.253 50.88 157.501 51.208C157.757 51.528 157.885 51.936 157.885 52.432C157.885 52.936 157.757 53.388 157.501 53.788C157.253 54.188 156.889 54.504 156.409 54.736C155.937 54.968 155.377 55.084 154.729 55.084Z" fill="white"/>
</g>
<defs>
<filter id="filter0_d_211_530" x="16" y="20" width="1248" height="688" filterUnits="userSpaceOnUse" color-interpolation-filters="sRGB">
<feFlood flood-opacity="0" result="BackgroundImageFix"/>
<feColorMatrix in="SourceAlpha" type="matrix" values="0 0 0 0 0 0 0 0 0 0 0 0 0 0 0 0 0 0 127 0" result="hardAlpha"/>
<feOffset dy="4"/>
<feGaussianBlur stdDeviation="2"/>
<feComposite in2="hardAlpha" operator="out"/>
<feColorMatrix type="matrix" values="0 0 0 0 0 0 0 0 0 0 0 0 0 0 0 0 0 0 0.25 0"/>
<feBlend mode="normal" in2="BackgroundImageFix" result="effect1_dropShadow_211_530"/>
<feBlend mode="normal" in="SourceGraphic" in2="effect1_dropShadow_211_530" result="shape"/>
</filter>
<filter id="filter1_b_211_530" x="484.269" y="-14.069" width="222.056" height="112.331" filterUnits="userSpaceOnUse" color-interpolation-filters="sRGB">
<feFlood flood-opacity="0" result="BackgroundImageFix"/>
<feGaussianBlur in="BackgroundImageFix" stdDeviation="17.1626"/>
<feComposite in2="SourceAlpha" operator="in" result="effect1_backgroundBlur_211_530"/>
<feBlend mode="normal" in="SourceGraphic" in2="effect1_backgroundBlur_211_530" result="shape"/>
</filter>
<filter id="filter2_b_211_530" x="318.269" y="-14.069" width="222.056" height="112.331" filterUnits="userSpaceOnUse" color-interpolation-filters="sRGB">
<feFlood flood-opacity="0" result="BackgroundImageFix"/>
<feGaussianBlur in="BackgroundImageFix" stdDeviation="17.1626"/>
<feComposite in2="SourceAlpha" operator="in" result="effect1_backgroundBlur_211_530"/>
<feBlend mode="normal" in="SourceGraphic" in2="effect1_backgroundBlur_211_530" result="shape"/>
</filter>
<filter id="filter3_b_211_530" x="152.269" y="-14.069" width="222.056" height="112.331" filterUnits="userSpaceOnUse" color-interpolation-filters="sRGB">
<feFlood flood-opacity="0" result="BackgroundImageFix"/>
<feGaussianBlur in="BackgroundImageFix" stdDeviation="17.1626"/>
<feComposite in2="SourceAlpha" operator="in" result="effect1_backgroundBlur_211_530"/>
<feBlend mode="normal" in="SourceGraphic" in2="effect1_backgroundBlur_211_530" result="shape"/>
</filter>
<filter id="filter4_b_211_530" x="-13.7307" y="-14.069" width="222.056" height="112.331" filterUnits="userSpaceOnUse" color-interpolation-filters="sRGB">
<feFlood flood-opacity="0" result="BackgroundImageFix"/>
<feGaussianBlur in="BackgroundImageFix" stdDeviation="17.1626"/>
<feComposite in2="SourceAlpha" operator="in" result="effect1_backgroundBlur_211_530"/>
<feBlend mode="normal" in="SourceGraphic" in2="effect1_backgroundBlur_211_530" result="shape"/>
</filter>
<linearGradient id="paint0_linear_211_530" x1="66.5" y1="40.2692" x2="588.257" y2="1025.27" gradientUnits="userSpaceOnUse">
<stop stop-color="#1A2028"/>
<stop offset="1" stop-color="#1A2028" stop-opacity="0.76"/>
</linearGradient>
<linearGradient id="paint1_linear_211_530" x1="33.7778" y1="34.96" x2="1219.39" y2="713.186" gradientUnits="userSpaceOnUse">
<stop stop-color="#414955"/>
<stop offset="1" stop-color="#2C323B" stop-opacity="0"/>
</linearGradient>
<linearGradient id="paint2_linear_211_530" x1="85" y1="406.287" x2="194.893" y2="897.374" gradientUnits="userSpaceOnUse">
<stop stop-color="#0D6AE8"/>
<stop offset="1" stop-color="#1A2028" stop-opacity="0.76"/>
</linearGradient>
<linearGradient id="paint3_linear_211_530" x1="53.3333" y1="404.116" x2="590.747" y2="1131.84" gradientUnits="userSpaceOnUse">
<stop stop-color="#0B65EC"/>
<stop offset="1" stop-color="#2C323B" stop-opacity="0"/>
</linearGradient>
<linearGradient id="paint4_linear_211_530" x1="85" y1="104.287" x2="194.893" y2="595.374" gradientUnits="userSpaceOnUse">
<stop stop-color="#0D6AE8"/>
<stop offset="1" stop-color="#1A2028" stop-opacity="0.76"/>
</linearGradient>
<linearGradient id="paint5_linear_211_530" x1="53.3333" y1="102.116" x2="590.747" y2="829.835" gradientUnits="userSpaceOnUse">
<stop stop-color="#0B65EC"/>
<stop offset="1" stop-color="#2C323B" stop-opacity="0"/>
</linearGradient>
<linearGradient id="paint6_linear_211_530" x1="519.711" y1="20.968" x2="608.321" y2="118.258" gradientUnits="userSpaceOnUse">
<stop stop-color="#0B65EC"/>
<stop offset="1" stop-color="#2C323B" stop-opacity="0"/>
</linearGradient>
<linearGradient id="paint7_linear_211_530" x1="520.299" y1="21.2171" x2="608.236" y2="118.1" gradientUnits="userSpaceOnUse">
<stop stop-color="#414955"/>
<stop offset="1" stop-color="#2C323B" stop-opacity="0"/>
</linearGradient>
<linearGradient id="paint8_linear_211_530" x1="353.711" y1="20.968" x2="442.321" y2="118.258" gradientUnits="userSpaceOnUse">
<stop stop-color="#0B65EC"/>
<stop offset="1" stop-color="#2C323B" stop-opacity="0"/>
</linearGradient>
<linearGradient id="paint9_linear_211_530" x1="354.299" y1="21.2171" x2="442.236" y2="118.1" gradientUnits="userSpaceOnUse">
<stop stop-color="#414955"/>
<stop offset="1" stop-color="#2C323B" stop-opacity="0"/>
</linearGradient>
<linearGradient id="paint10_linear_211_530" x1="187.711" y1="20.968" x2="276.321" y2="118.258" gradientUnits="userSpaceOnUse">
<stop stop-color="#0B65EC"/>
<stop offset="1" stop-color="#2C323B" stop-opacity="0"/>
</linearGradient>
<linearGradient id="paint11_linear_211_530" x1="188.299" y1="21.2171" x2="276.236" y2="118.1" gradientUnits="userSpaceOnUse">
<stop stop-color="#414955"/>
<stop offset="1" stop-color="#2C323B" stop-opacity="0"/>
</linearGradient>
<linearGradient id="paint12_linear_211_530" x1="21.7111" y1="20.968" x2="110.321" y2="118.258" gradientUnits="userSpaceOnUse">
<stop stop-color="#0B65EC"/>
<stop offset="1" stop-color="#2C323B" stop-opacity="0"/>
</linearGradient>
<linearGradient id="paint13_linear_211_530" x1="22.299" y1="21.2171" x2="110.236" y2="118.1" gradientUnits="userSpaceOnUse">
<stop stop-color="#414955"/>
<stop offset="1" stop-color="#2C323B" stop-opacity="0"/>
</linearGradient>
</defs>
</svg>
